<?xml version="1.0" standalone="no"?>
<!DOCTYPE svg PUBLIC "-//W3C//DTD SVG 20010904//EN"
 "http://www.w3.org/TR/2001/REC-SVG-20010904/DTD/svg10.dtd">
<svg version="1.0" xmlns="http://www.w3.org/2000/svg"
 width="512.000000pt" height="512.000000pt" viewBox="0 0 512.000000 512.000000"
 preserveAspectRatio="xMidYMid meet">
<metadata>
Created by potrace 1.14, written by Peter Selinger 2001-2017
</metadata>
<g transform="translate(0.000000,512.000000) scale(0.100000,-0.100000)"
fill="#000000" stroke="none">
<path d="M2135 4681 c-3 -6 -10 -9 -15 -6 -5 3 -11 1 -15 -4 -3 -6 4 -8 16 -6
25 5 35 13 27 21 -3 3 -9 0 -13 -5z"/>
<path d="M2170 4680 c-9 -6 -10 -10 -3 -10 6 0 15 5 18 10 8 12 4 12 -15 0z"/>
<path d="M3011 4677 c-8 -10 -7 -14 2 -14 8 0 14 6 14 14 0 7 -1 13 -2 13 -2
0 -8 -6 -14 -13z"/>
<path d="M2020 4663 c0 -7 -6 -11 -12 -9 -7 1 -10 1 -5 -1 4 -3 7 -9 7 -14 0
-6 -4 -7 -10 -4 -5 3 -10 1 -10 -5 0 -6 -4 -8 -10 -5 -5 3 -23 -1 -39 -10 -35
-17 -45 -19 -36 -5 3 6 2 10 -2 10 -5 0 -14 -9 -21 -21 -7 -12 -16 -18 -19
-15 -3 3 -17 -1 -32 -8 -14 -7 -32 -11 -38 -9 -7 3 -13 0 -13 -6 0 -6 -5 -11
-11 -11 -5 0 -7 5 -3 12 4 6 3 8 -4 4 -5 -3 -13 0 -16 6 -3 7 -3 3 0 -9 3 -16
-1 -25 -17 -33 -14 -8 -19 -8 -15 -1 4 7 1 9 -8 5 -9 -3 -14 -11 -13 -17 1 -7
-8 -11 -21 -11 -12 1 -20 -1 -17 -5 4 -3 12 -6 18 -6 7 0 13 -9 13 -20 1 -11
3 -22 4 -25 7 -20 7 -39 -1 -35 -5 4 -17 1 -26 -5 -13 -8 -13 -10 -3 -7 9 3
24 -1 35 -9 10 -8 13 -14 7 -14 -10 0 -10 -5 -1 -21 9 -17 8 -23 -2 -30 -8 -5
-9 -9 -4 -9 6 0 1 -8 -10 -16 -20 -16 -19 -16 4 -9 15 5 21 3 17 -3 -3 -6 -3
-12 1 -15 5 -2 2 -2 -4 -1 -7 2 -13 -1 -13 -7 0 -6 -4 -8 -8 -5 -5 3 -9 -1 -9
-9 0 -11 3 -12 14 -3 10 8 17 8 26 -2 8 -9 8 -11 1 -7 -7 4 -15 0 -18 -8 -4
-10 -1 -15 9 -13 7 2 14 -1 13 -7 0 -5 -4 -9 -9 -8 -4 2 -5 -5 -2 -14 5 -12 3
-14 -8 -8 -8 4 -11 4 -6 0 4 -5 -1 -18 -10 -29 -18 -21 -18 -21 3 -3 11 9 24
14 29 10 4 -5 5 -3 1 4 -3 6 -1 15 6 19 7 4 10 4 6 -1 -4 -4 -3 -14 3 -21 7
-8 7 -14 -1 -19 -5 -3 -10 -11 -10 -16 0 -6 4 -8 8 -5 4 2 8 -6 8 -19 0 -13
-4 -21 -8 -19 -4 3 -8 -1 -8 -8 0 -9 -3 -9 -10 2 -8 13 -10 13 -10 -1 0 -25
-24 -41 -39 -26 -10 9 -11 8 -6 -5 5 -12 1 -20 -9 -24 -9 -3 -13 -10 -10 -15
3 -5 -2 -6 -10 -3 -9 3 -13 11 -9 18 3 6 -5 1 -19 -11 -13 -13 -30 -23 -38
-23 -9 0 -8 -5 6 -16 10 -8 14 -13 7 -10 -6 4 -19 -4 -27 -16 -9 -12 -16 -18
-16 -12 0 5 5 15 12 22 9 9 9 12 0 12 -7 0 -12 -5 -12 -11 0 -6 -7 -8 -17 -5
-10 4 -14 4 -11 0 4 -3 1 -13 -7 -21 -18 -17 -20 -37 -3 -27 7 5 8 3 3 -5 -5
-9 -10 -10 -18 -2 -18 18 -31 13 -16 -6 13 -15 12 -15 -10 -3 -20 10 -23 10
-18 -2 3 -8 2 -20 -3 -27 -5 -10 -9 -9 -13 4 -5 11 -3 14 6 9 6 -4 8 -3 4 1
-14 16 -36 13 -42 -6 -6 -17 -8 -17 -21 -4 -9 8 -19 13 -23 11 -4 -3 -14 4
-21 14 -11 16 -17 17 -29 7 -12 -10 -13 -9 -7 1 6 9 3 12 -10 10 -12 -2 -18 2
-16 11 2 9 -4 12 -18 8 -22 -6 -37 8 -20 18 5 3 10 12 10 18 0 8 -3 7 -9 -2
-5 -8 -14 -10 -21 -6 -9 6 -11 4 -5 -4 6 -10 2 -10 -16 0 -13 7 -28 13 -33 14
-5 0 -11 7 -13 15 -4 13 -3 13 7 0 9 -12 11 -12 8 -1 -2 8 -12 15 -21 17 -9 1
-15 -2 -12 -7 4 -5 -1 -6 -9 -3 -9 3 -16 10 -16 14 0 5 -9 7 -21 5 -17 -4 -19
-2 -9 10 8 10 9 15 2 15 -6 0 -14 -5 -18 -11 -4 -8 -9 -7 -15 2 -7 12 -9 12
-9 0 0 -9 -7 -11 -21 -8 -16 4 -18 3 -8 -9 12 -14 7 -18 -23 -15 -10 1 -18 -3
-18 -9 0 -6 5 -8 10 -5 6 3 10 1 10 -4 0 -6 -5 -11 -11 -11 -5 0 -7 -4 -4 -10
3 -6 -1 -7 -9 -4 -9 3 -13 10 -10 15 9 15 -3 10 -16 -7 -8 -8 -9 -14 -4 -13
20 3 28 -2 16 -10 -7 -4 -14 -14 -15 -22 -5 -29 -18 -39 -36 -30 -13 7 -18 6
-18 -4 0 -8 4 -12 9 -9 4 3 5 -2 2 -11 -6 -14 -9 -14 -28 2 -20 18 -20 18 -6
-2 8 -11 20 -23 25 -27 9 -7 -8 -13 -29 -9 -5 1 -6 -8 -3 -19 4 -18 3 -19 -9
-9 -12 10 -13 9 -8 -4 6 -17 -10 -18 -36 -2 -13 7 -13 6 -2 -7 10 -13 10 -17
0 -22 -7 -3 -3 -3 10 0 29 7 28 -4 -1 -15 -26 -10 -34 -42 -8 -34 9 3 6 -2 -7
-11 -12 -10 -20 -21 -18 -24 2 -4 -5 -19 -16 -32 -11 -14 -16 -19 -12 -11 4 9
3 12 -4 8 -13 -9 -10 -33 9 -55 9 -10 19 -24 24 -32 8 -13 7 -13 -9 -1 -13 11
-19 12 -29 2 -9 -10 -8 -11 7 -5 12 5 17 4 13 -3 -3 -5 -1 -10 6 -11 7 -1 23
-3 36 -4 13 -2 26 -10 28 -18 3 -9 1 -11 -4 -5 -4 6 -19 11 -33 12 -14 1 -19
-1 -13 -4 7 -2 15 -4 18 -3 3 0 13 -6 21 -15 9 -8 19 -13 24 -10 4 3 14 -3 21
-12 10 -12 10 -14 2 -9 -8 4 -13 2 -13 -6 0 -8 -5 -6 -11 5 -13 21 -25 22 -33
1 -5 -13 -3 -14 7 -6 10 8 16 6 27 -11 8 -12 13 -26 12 -30 -1 -5 2 -6 8 -2 5
3 10 -1 10 -10 0 -12 5 -15 16 -11 9 3 18 6 20 6 3 0 3 4 0 8 -3 5 1 9 9 9 8
0 12 -4 9 -8 -2 -4 4 -13 13 -19 15 -10 15 -11 1 -6 -16 5 -34 -21 -23 -32 3
-3 5 1 5 9 0 12 2 11 11 -1 8 -11 12 -12 16 -2 3 8 11 4 25 -13 11 -14 24 -22
30 -19 7 4 8 2 4 -5 -6 -8 -12 -9 -20 -2 -27 23 -23 -3 5 -30 31 -30 31 -36
-2 -19 -13 8 -19 7 -19 0 0 -6 -5 -8 -12 -4 -7 4 -8 3 -4 -4 4 -6 12 -9 19 -6
7 2 21 -2 32 -11 18 -14 18 -14 1 -9 -16 6 -17 4 -8 -12 7 -14 7 -24 -3 -37
-15 -21 -22 -22 -22 -2 0 8 3 12 7 10 3 -2 7 5 7 16 1 10 -2 19 -8 19 -5 0 -8
-6 -7 -12 2 -7 -3 -12 -10 -10 -9 2 -11 -2 -6 -10 12 -19 13 -37 3 -44 -5 -3
-7 -9 -5 -13 3 -4 7 -19 10 -34 3 -20 1 -24 -11 -20 -13 5 -13 3 -2 -15 11
-18 11 -24 -1 -34 -9 -7 -13 -12 -11 -11 2 2 10 -6 18 -17 16 -22 9 -42 -11
-34 -9 4 -13 -2 -11 -20 2 -14 -1 -26 -5 -26 -5 0 -7 -9 -5 -20 2 -11 -1 -23
-7 -26 -6 -4 -8 -3 -5 2 3 6 -3 15 -13 22 -14 9 -21 9 -26 0 -4 -7 -3 -8 4 -4
7 4 14 -3 18 -19 4 -15 11 -22 18 -18 6 3 7 2 3 -2 -15 -17 -35 -13 -30 5 6
21 -32 31 -67 18 -14 -5 -28 -4 -35 2 -10 8 -15 8 -21 -1 -5 -8 -3 -9 6 -4 8
5 11 4 7 -3 -4 -5 -15 -9 -25 -7 -9 2 -19 4 -22 4 -3 1 2 6 10 12 13 9 13 10
0 6 -8 -2 -15 -11 -14 -19 1 -8 -4 -15 -11 -15 -7 0 -11 6 -8 13 2 6 -1 15 -7
19 -6 3 -10 3 -9 -2 5 -27 -1 -35 -16 -23 -12 10 -16 9 -21 -4 -8 -21 -30 -20
-44 2 -10 15 -10 15 -5 -3 4 -16 0 -21 -14 -21 -11 0 -17 5 -14 10 3 5 1 6 -6
2 -6 -4 -18 -3 -26 4 -10 8 -15 8 -21 -1 -4 -7 -3 -9 3 -6 6 4 16 1 22 -7 9
-11 6 -15 -13 -18 -14 -3 -23 -1 -20 3 3 5 -2 6 -10 3 -13 -5 -20 -21 -15 -36
0 -2 -5 -16 -11 -32 -8 -22 -7 -32 2 -44 8 -10 8 -13 2 -9 -15 9 -25 -15 -14
-33 4 -7 6 -19 3 -26 -4 -11 -10 -11 -26 -2 -20 10 -21 10 -8 -5 11 -14 11
-17 0 -18 -8 0 -4 -5 8 -11 25 -12 37 -45 16 -45 -8 0 -12 6 -9 14 3 8 2 12
-3 8 -5 -3 -11 1 -14 7 -2 7 -4 1 -3 -14 0 -14 3 -25 6 -23 3 2 12 0 20 -6 13
-7 12 -9 -2 -9 -10 0 -18 -4 -18 -10 0 -5 8 -7 18 -3 13 5 14 3 5 -7 -8 -9 -9
-19 -1 -35 12 -27 -6 -70 -25 -59 -7 4 -4 -2 7 -14 10 -12 23 -19 27 -16 5 3
9 0 9 -6 0 -7 -7 -10 -15 -6 -8 3 -15 1 -15 -3 0 -5 7 -11 15 -15 9 -3 12 -12
8 -22 -4 -12 -3 -15 6 -10 6 4 11 4 10 -1 -1 -4 0 -11 1 -15 3 -9 7 -24 9 -34
0 -4 9 0 18 7 14 12 15 12 9 0 -7 -10 -3 -12 15 -6 19 5 21 4 9 -4 -14 -10 -7
-15 13 -12 5 1 6 -3 2 -9 -5 -8 -11 -7 -21 1 -8 6 -14 8 -14 3 0 -5 -5 -2 -10
6 -8 13 -10 12 -10 -2 0 -19 0 -19 45 -23 40 -4 39 -3 26 -19 -9 -11 -9 -16 0
-22 7 -4 9 -3 6 3 -4 6 0 16 8 23 16 13 17 12 19 -19 1 -25 13 -37 13 -14 0
38 4 43 29 43 14 0 23 -4 19 -10 -4 -6 -10 -8 -15 -5 -5 3 -11 1 -15 -4 -3 -6
4 -8 16 -6 13 3 26 10 30 17 4 7 11 9 15 6 4 -4 16 -3 28 3 20 10 20 9 2 -5
-10 -9 -23 -13 -29 -9 -6 3 -7 1 -3 -5 3 -6 1 -12 -6 -15 -7 -2 -5 -3 4 -2 9
2 19 -2 21 -9 2 -6 3 -3 2 7 -2 9 3 17 10 17 9 0 12 -8 10 -20 -2 -11 0 -18 5
-15 5 3 7 14 5 25 -2 11 0 22 4 24 4 3 8 -1 9 -9 1 -8 3 -22 4 -30 1 -10 5
-12 13 -5 7 6 16 5 25 -3 10 -9 11 -9 6 1 -5 8 0 12 14 12 12 0 19 4 16 9 -3
5 0 14 7 20 10 8 19 5 35 -13 17 -20 18 -25 6 -30 -8 -3 -12 -2 -9 3 10 17
-10 20 -35 5 -23 -14 -23 -14 -2 -9 15 4 24 1 28 -9 3 -9 10 -16 16 -16 5 0 6
5 3 10 -3 6 0 10 9 10 8 0 16 6 19 13 3 6 4 2 4 -10 -1 -12 -5 -19 -9 -17 -16
10 -7 -39 10 -53 9 -8 11 -12 5 -8 -14 7 -13 -51 1 -74 6 -9 5 -12 -2 -7 -6 3
-14 -3 -17 -15 -5 -14 -2 -25 6 -30 12 -8 6 -13 -12 -11 -3 1 -5 -14 -4 -31 1
-18 -3 -38 -9 -46 -8 -11 -8 -13 2 -7 8 5 12 1 12 -13 0 -11 -5 -23 -10 -26
-8 -5 -8 -11 -1 -19 6 -7 7 -16 3 -21 -4 -4 4 -2 18 5 24 13 24 12 10 -5 -17
-21 -17 -24 2 -37 10 -8 10 -9 -2 -5 -8 2 -14 9 -13 14 1 5 -4 10 -11 10 -7 0
-13 -6 -13 -13 0 -7 4 -11 9 -8 13 8 10 -10 -5 -25 -9 -11 -9 -13 1 -7 6 4 12
3 12 -3 0 -5 -4 -11 -9 -13 -5 -1 -2 -10 7 -18 14 -13 15 -12 9 3 -3 9 -2 17
3 17 17 0 7 -61 -12 -74 -12 -9 -16 -16 -9 -21 6 -3 11 -12 11 -18 -1 -11 -23
19 -26 36 -1 4 -2 10 -3 13 0 4 -10 -5 -22 -20 -11 -14 -26 -26 -32 -26 -7 0
-3 7 7 15 11 8 15 15 9 15 -19 0 -34 -25 -22 -37 7 -7 3 -10 -15 -8 -14 2 -29
-2 -33 -7 -3 -7 -1 -8 5 -4 7 4 12 1 12 -8 0 -19 -11 -21 -28 -4 -8 8 -12 9
-12 1 0 -6 6 -13 13 -16 6 -2 9 -8 5 -12 -4 -4 -14 -2 -23 5 -8 7 -15 8 -15 2
0 -5 8 -13 18 -17 16 -6 16 -7 -1 -17 -17 -9 -17 -11 -1 -22 12 -9 14 -15 5
-20 -8 -5 -8 -13 -1 -27 6 -11 8 -25 4 -31 -5 -8 -2 -9 11 -4 14 5 16 4 7 -7
-16 -19 9 -53 31 -44 9 3 19 1 23 -5 4 -7 3 -8 -4 -4 -7 4 -12 1 -12 -9 0 -12
5 -15 22 -9 21 6 22 5 8 -11 -9 -11 -10 -16 -2 -11 6 4 12 2 12 -3 0 -6 5 -11
11 -11 5 0 7 5 3 12 -4 6 -3 8 3 5 6 -4 9 -18 8 -32 -2 -14 1 -25 7 -25 6 0 8
7 5 15 -4 8 -1 17 5 21 6 4 8 3 4 -4 -3 -5 -1 -12 5 -14 8 -3 6 -10 -5 -21
-10 -9 -13 -17 -7 -17 5 0 13 5 16 10 4 6 10 8 15 5 9 -6 7 -27 -6 -59 -5 -12
-4 -17 3 -13 5 3 10 0 10 -8 0 -18 -9 -19 -24 -4 -8 8 -13 8 -18 0 -3 -6 -1
-10 6 -9 6 2 14 -3 17 -11 3 -9 0 -11 -8 -6 -9 6 -9 3 -1 -14 13 -24 23 -28
15 -6 -9 23 4 18 17 -6 6 -12 7 -19 1 -15 -6 3 -9 -21 -9 -62 0 -37 -3 -76 -8
-86 -5 -12 -5 -17 2 -13 5 3 10 -1 10 -9 0 -9 -6 -13 -14 -10 -8 3 -11 2 -8
-3 3 -5 1 -12 -5 -16 -5 -3 -10 -11 -10 -18 0 -6 7 -2 15 9 15 19 15 19 8 -1
-6 -18 -5 -19 13 -5 17 13 18 13 8 0 -6 -8 -10 -38 -10 -67 1 -28 -3 -49 -7
-46 -5 3 -6 11 -4 17 3 7 -1 13 -8 13 -10 0 -8 -11 7 -41 17 -33 18 -38 4 -27
-14 12 -16 12 -10 -4 6 -14 4 -16 -7 -10 -8 5 -11 4 -6 -1 5 -5 15 -9 24 -9
10 0 17 -11 18 -30 3 -28 2 -29 -7 -7 -6 12 -15 22 -19 22 -5 0 1 -15 12 -34
20 -34 35 -38 65 -15 6 5 11 3 11 -6 0 -8 -3 -12 -7 -10 -3 2 -12 -1 -20 -6
-13 -9 -13 -10 0 -8 30 3 41 -1 34 -13 -4 -6 -3 -8 4 -5 5 4 8 16 5 27 -3 12
0 20 6 20 7 0 10 -4 7 -9 -8 -13 4 -42 15 -35 5 3 9 10 9 15 0 6 -5 7 -11 4
-6 -4 -5 2 3 14 17 28 27 27 24 -4 -4 -31 19 -54 37 -36 9 10 8 11 -8 5 -18
-7 -19 -6 -5 11 9 11 10 16 2 11 -6 -4 -12 -3 -12 2 0 5 12 10 26 10 18 0 22
-3 13 -9 -11 -7 -10 -9 3 -9 10 0 27 9 37 19 16 16 21 17 25 5 3 -8 12 -11 23
-7 10 3 15 3 11 -2 -4 -4 -20 -9 -35 -10 -15 0 -28 -6 -29 -13 -1 -7 0 -8 3
-2 3 7 10 4 19 -7 10 -13 12 -13 9 -3 -4 11 1 16 15 17 11 1 18 -2 15 -7 -6
-10 15 -8 34 4 11 7 13 5 8 -10 -7 -18 -6 -18 8 1 18 22 24 23 36 3 7 -10 9
-10 9 0 0 7 4 11 9 7 5 -3 13 0 17 6 4 8 3 9 -4 5 -7 -4 -12 -3 -12 2 0 5 11
10 25 10 14 0 25 -5 25 -10 0 -5 -6 -6 -12 -2 -7 4 -9 3 -5 -1 4 -5 -3 -15
-15 -23 -18 -10 -19 -12 -3 -6 11 3 25 7 32 7 7 0 11 3 10 6 -1 3 8 16 20 28
17 17 23 18 27 7 3 -7 12 -11 21 -8 8 3 15 2 15 -3 0 -5 -14 -9 -32 -9 -18 1
-32 -4 -34 -12 -1 -7 0 -8 3 -2 3 7 10 4 19 -7 13 -17 14 -17 8 0 -7 19 15 21
29 2 4 -6 10 0 13 13 7 24 19 28 30 10 5 -7 3 -8 -7 -3 -11 7 -12 6 -2 -7 7
-8 9 -19 5 -23 -4 -5 -1 -5 6 -1 7 4 10 12 7 17 -9 13 30 6 49 -10 8 -7 21
-11 28 -8 9 4 8 6 -3 6 -9 1 -16 8 -16 16 0 17 13 20 22 6 5 -9 12 -9 50 -1
22 5 36 -1 29 -12 -4 -7 -3 -8 4 -4 6 4 9 13 6 20 -6 15 -45 16 -56 1 -5 -6
-8 -3 -8 6 0 22 24 31 40 16 10 -10 12 -8 6 8 -6 19 -5 19 8 2 8 -10 16 -17
19 -15 3 2 9 -1 14 -6 5 -6 2 -6 -6 -1 -11 6 -13 4 -8 -9 4 -10 7 -20 7 -22 0
-3 5 -2 12 2 7 4 8 3 4 -5 -4 -6 -12 -8 -18 -5 -7 4 -8 2 -4 -4 4 -7 2 -12 -3
-12 -6 0 -11 -4 -11 -10 0 -5 3 -9 8 -9 4 1 10 0 15 -1 4 -1 13 -3 20 -4 6 -1
11 -9 11 -18 -1 -10 3 -16 9 -15 17 3 35 21 32 32 -1 5 0 7 2 2 3 -4 9 -5 14
-1 5 3 8 2 7 -3 -2 -4 2 -10 7 -12 6 -2 27 -12 49 -23 31 -16 40 -17 47 -7 6
10 8 7 6 -8 -1 -20 -3 -21 -29 -7 -21 11 -33 12 -46 4 -14 -9 -13 -10 7 -4 16
4 21 3 17 -5 -5 -7 -1 -8 10 -4 14 5 15 3 5 -18 -12 -23 -12 -23 4 -4 l16 20
16 -20 c13 -16 15 -17 10 -2 -4 9 -2 17 4 17 6 0 8 4 4 9 -3 5 -1 12 3 15 5 3
8 -10 7 -28 -2 -26 1 -33 14 -31 9 1 19 -5 23 -14 6 -13 7 -12 5 4 -1 11 -7
20 -14 20 -19 0 -25 12 -8 18 8 4 15 2 15 -3 0 -6 5 -10 11 -10 6 0 9 7 6 14
-4 10 -1 13 8 9 8 -3 13 -9 10 -13 -3 -4 2 -10 10 -14 8 -3 15 0 15 7 0 7 5 4
10 -5 7 -11 19 -15 34 -12 27 5 43 -10 25 -22 -8 -4 -9 -3 -5 4 10 16 -7 15
-23 0 -8 -7 -11 -8 -8 -2 3 6 0 11 -8 11 -18 0 -20 -16 -2 -18 6 -1 24 -1 40
-1 15 0 25 -3 23 -7 -3 -4 1 -8 9 -8 11 0 12 4 4 13 -6 7 -9 19 -6 26 4 8 6 7
6 -4 1 -10 4 -18 9 -19 4 0 17 -2 29 -3 12 -1 22 0 21 3 -2 20 4 23 15 7 12
-16 13 -16 13 3 0 11 -4 17 -8 15 -4 -3 -8 0 -8 6 0 6 -4 8 -10 5 -6 -3 -7 1
-3 10 5 13 7 14 14 3 7 -10 9 -10 9 0 0 6 5 12 11 12 5 0 7 -5 4 -10 -3 -6 -1
-10 4 -10 17 0 13 21 -6 36 -17 13 -17 14 0 8 9 -3 17 -1 17 5 0 6 -6 11 -12
11 -9 0 -8 4 2 10 8 5 11 10 6 10 -5 0 -4 6 2 13 6 6 11 15 11 19 4 23 15 38
27 38 8 0 14 5 14 11 0 5 -5 7 -12 3 -7 -4 -8 -3 -4 4 4 7 0 12 -10 12 -10 0
-15 3 -11 6 10 10 47 -7 47 -22 0 -8 5 -12 10 -9 6 3 10 1 10 -6 0 -7 3 -9 6
-6 4 4 0 17 -9 30 -12 19 -13 24 -2 24 8 0 11 -5 8 -10 -4 -6 1 -8 11 -4 10 4
22 7 27 7 6 0 7 6 3 13 -4 6 -3 9 1 4 5 -4 17 1 28 10 11 10 17 13 14 6 -4 -6
-3 -14 2 -17 9 -6 8 13 -3 66 -6 25 -4 28 21 29 16 1 32 0 38 -1 5 -1 7 2 3 6
-4 4 -3 13 3 21 8 8 8 13 1 13 -6 0 -12 -5 -14 -10 -2 -6 -17 -13 -33 -15 -19
-4 -25 -2 -17 3 8 5 13 12 13 16 -3 24 1 27 13 10 13 -16 15 -17 21 -3 11 29
33 18 30 -15 l-3 -31 11 28 c6 15 15 27 20 27 4 0 6 -4 2 -9 -3 -5 -1 -12 4
-15 5 -4 12 3 16 14 4 11 11 18 16 15 5 -4 2 -13 -6 -21 -8 -9 -15 -21 -15
-27 0 -7 5 -4 11 6 6 9 15 15 21 11 6 -4 5 -9 -3 -15 -10 -6 -7 -8 8 -6 12 0
19 5 17 9 -3 4 0 8 5 8 10 0 15 -14 12 -33 -1 -5 3 -6 8 -2 6 3 8 11 5 19 -3
7 2 13 11 13 14 0 19 -10 16 -30 -1 -5 3 -6 8 -2 6 3 8 11 5 19 -3 7 2 13 11
13 8 0 15 -5 15 -10 0 -6 3 -7 6 -4 4 4 -1 18 -11 33 -11 17 -12 23 -4 18 27
-16 46 -13 58 9 11 21 11 21 5 -3 -6 -22 -5 -23 10 -11 9 8 16 9 16 3 0 -6 -5
-12 -10 -14 -6 -2 -12 -12 -14 -23 -2 -11 -6 -27 -8 -35 -2 -10 3 -14 16 -12
13 2 16 0 10 -10 -11 -17 -14 -38 -6 -37 21 3 32 -2 26 -13 -5 -7 -2 -9 9 -5
12 4 14 2 10 -11 -6 -15 -5 -15 11 -3 15 13 17 12 12 -14 -5 -27 -5 -27 16 -9
20 19 21 19 14 -6 -5 -17 -4 -21 2 -11 8 11 11 9 17 -8 3 -11 4 -25 1 -29 -3
-5 1 -9 9 -9 12 0 12 5 -1 35 -17 40 -18 52 -4 52 5 0 7 -6 4 -13 -3 -8 2 -20
11 -27 14 -12 16 -10 11 16 -4 16 -3 22 0 14 4 -8 11 -23 16 -34 7 -12 7 -16
0 -12 -7 4 -10 -5 -10 -24 1 -16 5 -30 9 -30 4 0 6 9 4 20 -2 11 1 20 7 20 5
0 8 -6 5 -14 -3 -7 0 -19 6 -26 9 -10 9 -11 0 -6 -7 4 -13 3 -13 -2 0 -17 13
-22 29 -9 14 11 14 10 2 -5 -12 -17 -9 -23 12 -19 5 1 6 -3 3 -8 -4 -5 3 -19
15 -30 14 -13 19 -26 15 -37 -5 -13 -4 -15 7 -5 15 12 28 2 40 -29 4 -12 6
-11 6 3 1 11 6 15 13 11 7 -5 8 -3 3 6 -5 9 -2 10 13 6 23 -8 39 8 21 20 -7 4
-9 3 -6 -3 4 -7 -3 -10 -18 -9 -13 0 -21 4 -17 8 13 13 72 16 79 5 3 -5 2 -7
-4 -4 -5 3 -10 0 -10 -8 0 -9 5 -11 11 -7 6 5 18 8 26 7 17 -1 31 15 24 27 -3
4 -11 8 -17 8 -7 0 -6 -4 3 -10 12 -7 10 -9 -8 -7 -25 1 -29 12 -8 20 21 8 57
-4 49 -16 -3 -6 -1 -7 5 -3 7 4 12 14 12 22 0 8 5 14 11 14 5 0 7 -6 3 -12 -4
-7 -4 -10 1 -6 4 4 17 3 29 -3 20 -10 20 -10 2 5 -15 12 -16 16 -5 16 8 0 21
-6 28 -13 9 -8 12 -9 9 0 -2 6 6 19 17 28 11 9 13 13 5 9 -13 -6 -13 -5 -1 7
10 11 15 11 18 2 7 -18 23 -16 23 3 0 9 9 18 21 21 14 4 17 8 9 13 -7 4 -8 10
-3 13 5 3 14 -3 21 -14 7 -10 9 -19 5 -18 -5 1 -17 1 -28 -1 l-20 -1 20 -9
c13 -5 26 -3 36 6 9 8 18 11 22 8 3 -4 4 5 1 20 -3 16 2 32 13 43 10 10 18 26
17 36 -2 12 -1 13 3 2 2 -8 10 -12 16 -8 7 4 6 -1 -2 -10 -9 -12 -10 -17 -2
-17 7 0 10 -4 7 -9 -7 -11 20 -8 31 3 4 4 1 6 -7 4 -9 -2 -15 5 -16 18 0 12
-4 25 -7 31 -3 5 -2 15 2 21 6 10 11 9 21 -3 11 -13 10 -14 -5 -9 -13 5 -16 4
-11 -4 4 -7 14 -12 22 -12 15 0 19 -15 7 -23 -5 -2 -3 -3 3 -1 6 1 17 -3 24
-9 7 -7 5 1 -5 16 -10 15 -15 30 -11 34 3 3 6 1 6 -7 0 -10 4 -10 17 1 9 8 14
9 11 4 -4 -6 2 -16 13 -23 21 -14 25 -3 7 18 -11 12 -10 12 5 1 11 -9 15 -21
12 -35 -5 -18 -4 -18 4 -4 7 10 19 14 31 11 12 -3 20 0 20 6 0 7 -4 9 -10 6
-6 -4 -7 1 -3 11 5 14 7 14 14 1 6 -9 20 -13 39 -11 16 2 30 -1 30 -7 0 -6 -4
-8 -8 -5 -12 7 -38 -12 -29 -21 5 -4 12 -1 17 7 6 8 10 11 10 6 0 -5 6 -3 13
3 8 6 16 8 20 5 3 -3 8 4 12 15 3 12 11 19 16 16 5 -4 2 -13 -6 -21 -17 -18
-20 -34 -4 -34 5 0 8 4 4 9 -3 6 4 15 15 21 11 6 18 16 14 21 -3 6 8 3 25 -5
35 -18 38 -23 16 -23 -8 0 -15 4 -15 9 0 4 -4 8 -8 8 -11 0 -13 -39 -1 -45 5
-3 6 0 3 8 -3 8 2 14 11 14 8 0 15 -5 15 -11 0 -6 5 -4 10 4 9 13 10 13 11 0
1 -8 1 -19 0 -23 -1 -5 3 -6 8 -2 6 3 8 11 5 19 -3 7 2 13 11 13 14 0 19 -10
16 -30 -1 -5 3 -6 8 -2 6 3 8 11 5 18 -3 8 4 13 16 13 11 0 20 -5 20 -11 0 -5
4 -4 9 3 4 8 12 14 16 14 4 0 12 -6 16 -14 5 -7 9 -8 9 -2 0 14 30 14 30 0 0
-6 5 -4 10 4 5 8 10 12 10 8 0 -4 11 -3 25 2 20 8 28 5 46 -18 17 -22 20 -24
17 -7 -2 14 3 20 15 20 10 0 23 9 28 20 10 20 10 20 -5 1 -9 -11 -16 -15 -16
-9 0 15 27 36 38 29 6 -3 12 4 15 15 4 14 11 20 21 16 11 -5 10 1 -5 27 -15
26 -16 33 -4 33 8 0 11 -5 8 -11 -4 -6 1 -5 10 3 18 15 23 26 7 16 -5 -3 -10
-1 -10 4 0 6 5 11 12 11 6 0 8 3 5 6 -4 4 -13 2 -21 -5 -11 -10 -14 -7 -12 13
0 13 5 22 10 19 5 -3 6 0 4 8 -3 8 -10 13 -16 12 -11 -3 -10 22 1 33 12 12 8
26 -5 18 -7 -4 -8 -3 -4 4 4 6 14 8 23 5 11 -4 14 -3 9 5 -4 7 -2 12 3 12 6 0
11 5 11 12 0 9 -3 9 -12 0 -16 -16 -25 -15 -25 3 0 8 4 12 8 9 4 -2 7 5 6 16
-1 11 -5 20 -10 20 -4 0 -5 5 -2 10 4 6 10 8 15 5 5 -3 7 6 4 20 -2 14 0 25 6
25 5 0 10 4 10 10 0 5 -3 9 -7 9 -19 -3 -36 2 -30 8 4 3 2 12 -4 19 -7 8 -7
14 1 19 10 6 11 5 14 -15 0 -5 4 -10 9 -10 4 0 10 0 13 0 4 0 1 7 -6 15 -10
12 -10 18 0 31 8 8 9 14 4 13 -21 -4 -35 2 -29 11 4 6 10 8 15 5 5 -3 7 4 5
17 -3 12 1 26 8 30 9 6 9 8 -1 8 -7 0 -10 5 -7 10 4 6 11 8 16 5 5 -3 6 1 2
10 -4 12 -8 13 -13 5 -4 -7 -7 7 -7 31 0 24 2 36 4 27 3 -10 9 -18 15 -18 5 0
8 7 4 15 -3 8 -1 15 5 15 6 0 7 4 4 10 -4 6 1 7 11 3 14 -5 16 -3 10 12 -4 11
-4 16 0 13 9 -9 33 15 26 26 -3 5 1 5 9 0 18 -11 59 -13 52 -1 -3 4 -11 6 -18
3 -19 -7 -40 20 -24 30 8 4 9 3 5 -4 -4 -7 -1 -12 8 -12 10 0 13 6 10 18 -5
14 -3 14 12 -3 15 -18 16 -18 10 -2 -3 10 -6 23 -6 28 0 6 -6 7 -12 3 -10 -6
-10 -5 -1 8 7 8 11 17 8 20 -3 2 1 5 8 5 8 0 14 -6 14 -13 0 -7 -4 -11 -9 -8
-4 3 -5 -3 -1 -12 4 -11 8 -13 11 -6 2 7 7 10 12 7 7 -4 7 17 0 35 -1 3 -2 9
-1 13 1 5 -3 6 -9 2 -5 -3 -10 -1 -10 4 0 6 8 11 18 11 13 0 14 2 3 9 -8 5
-12 18 -8 31 4 17 3 19 -9 9 -8 -6 -14 -10 -15 -8 0 2 -2 19 -4 37 -4 41 -11
49 -18 22 -3 -12 -1 -18 5 -13 7 4 8 1 3 -7 -6 -10 -11 -9 -22 5 -7 11 -13 24
-13 29 0 6 5 4 11 -4 9 -13 10 -13 6 0 -2 8 -14 14 -26 14 -18 -1 -22 3 -18
18 4 15 3 17 -8 8 -9 -8 -14 -6 -19 5 -4 12 -15 15 -36 11 -17 -2 -28 0 -24 5
3 5 10 7 15 4 15 -10 10 19 -8 45 -16 25 -16 25 3 7 12 -9 25 -17 30 -17 5 0
3 4 -5 9 -16 11 -5 34 12 24 7 -3 4 3 -6 15 -12 12 -16 26 -11 34 6 11 5 11
-8 0 -13 -10 -18 -10 -24 -1 -4 8 -3 9 4 5 8 -5 10 5 8 34 -3 35 -1 39 12 28
13 -11 14 -10 3 10 -7 12 -16 20 -20 18 -4 -3 -8 1 -8 9 0 12 5 11 31 -1 29
-14 29 -14 11 1 -16 13 -17 17 -6 24 9 6 10 11 2 15 -6 4 -11 12 -11 18 0 6 7
5 18 -3 15 -13 16 -12 4 3 -8 9 -19 15 -26 12 -7 -3 -13 2 -13 10 0 8 5 12 10
9 5 -3 7 0 5 8 -3 8 -1 23 5 34 9 17 8 18 -5 7 -13 -10 -18 -10 -24 -1 -4 8
-3 9 4 5 8 -5 10 8 7 41 -2 27 -5 53 -7 58 -2 6 1 10 7 10 5 0 9 -6 7 -12 -2
-7 4 -13 13 -13 8 0 15 2 15 4 0 11 -28 55 -32 51 -2 -3 -5 2 -5 10 0 8 4 12
8 10 13 -8 18 22 6 36 -7 8 -8 10 -3 6 5 -3 15 1 23 11 13 16 13 15 5 -3 -5
-11 -8 -28 -7 -37 2 -10 -1 -18 -6 -18 -6 0 -7 -5 -3 -11 4 -8 9 -7 15 2 4 7
5 17 2 23 -4 5 1 7 10 3 19 -7 32 8 16 19 -8 5 -9 3 -4 -6 6 -9 4 -11 -4 -5
-10 5 -10 10 -1 19 8 8 13 7 20 -4 5 -8 10 -11 10 -5 0 5 5 4 12 -3 9 -9 15
-7 25 6 8 9 12 11 8 5 -6 -13 10 -17 48 -14 9 1 17 -3 17 -8 0 -6 5 -11 10
-11 6 0 3 11 -5 24 -12 18 -13 26 -4 32 8 4 9 3 5 -4 -4 -7 -3 -12 3 -12 5 0
12 6 15 13 3 6 3 2 1 -9 -4 -13 0 -24 8 -27 10 -4 13 1 9 19 -2 14 0 24 7 24
7 0 9 -4 6 -10 -3 -5 1 -10 9 -10 9 0 16 -5 16 -12 0 -6 3 -9 6 -6 3 4 0 16
-6 28 -10 18 -9 21 1 15 7 -5 18 -1 27 11 12 16 14 16 9 2 -4 -12 1 -22 16
-29 19 -11 20 -10 10 2 -10 12 -8 18 7 32 11 9 20 12 20 6 0 -5 6 -7 13 -3 9
6 8 3 -1 -8 -8 -10 -20 -14 -30 -11 -14 6 -15 5 -2 -9 8 -9 17 -13 20 -9 3 3
14 13 24 21 18 13 19 13 11 0 -6 -12 -5 -13 5 -3 10 10 11 15 1 27 -10 12 -9
14 3 12 9 -1 19 -6 23 -11 4 -4 2 -5 -4 -1 -9 5 -11 2 -6 -10 4 -11 8 -13 11
-6 2 7 9 9 14 6 6 -4 8 -2 5 3 -4 6 -1 16 7 22 15 13 16 28 2 49 -14 23 -15
64 -1 58 17 -6 28 21 13 30 -6 4 -8 3 -5 -3 3 -5 -1 -10 -10 -10 -13 0 -12 4
5 18 29 23 28 33 0 18 -20 -11 -21 -10 -10 3 7 9 10 23 6 32 -3 9 -1 16 6 16
6 0 9 -4 5 -9 -3 -5 -1 -12 4 -15 5 -4 8 2 6 11 -2 10 -4 21 -4 25 -1 4 -9 5
-18 2 -11 -4 -14 -3 -7 3 6 4 10 25 10 46 -2 24 4 44 16 57 10 11 14 20 9 20
-5 0 -13 -4 -16 -10 -3 -6 -12 -10 -18 -10 -8 0 -8 3 2 9 9 6 10 11 2 15 -13
9 -5 26 12 26 7 0 6 -4 -3 -10 -8 -5 -10 -10 -5 -10 6 0 17 5 25 10 9 6 10 10
3 10 -20 0 -41 29 -36 50 3 11 9 17 14 14 16 -9 10 3 -8 17 -14 12 -16 12 -8
0 5 -9 4 -12 -2 -8 -11 7 -11 36 0 54 4 6 2 15 -4 19 -8 4 -9 3 -5 -4 4 -7 1
-12 -8 -12 -9 0 -16 3 -16 8 0 4 -16 8 -36 8 -24 1 -40 8 -50 23 -8 11 -21 21
-27 20 -9 0 -9 -2 0 -5 7 -3 9 -12 7 -19 -5 -11 -9 -12 -19 -2 -7 7 -11 15 -8
19 2 5 -8 3 -22 -2 -36 -14 -44 -12 -22 4 12 9 14 16 8 21 -6 3 -11 1 -11 -4
0 -6 -5 -11 -11 -11 -5 0 -7 5 -3 12 4 7 3 8 -4 4 -6 -4 -8 -14 -5 -24 5 -14
4 -15 -8 -6 -8 6 -22 10 -32 9 -10 -2 -21 3 -24 11 -3 8 -9 14 -15 14 -5 0 -6
-6 -2 -12 5 -9 3 -9 -9 1 -9 7 -14 17 -11 22 3 5 1 9 -5 9 -5 0 -11 -6 -13
-12 -3 -7 -19 -13 -36 -14 -19 0 -29 4 -25 10 3 6 0 5 -8 -3 -11 -10 -11 -15
-1 -18 6 -3 12 -9 12 -15 0 -7 -5 -7 -13 1 -8 6 -17 7 -22 3 -4 -4 -2 4 5 17
11 21 10 23 -3 18 -11 -4 -14 -2 -11 7 3 8 14 12 27 9 16 -4 13 1 -11 16 -18
12 -30 26 -27 31 3 6 8 10 11 10 3 0 3 -4 -1 -9 -3 -5 -1 -12 4 -15 10 -7 9
19 -1 30 -4 3 -4 12 -1 20 3 8 0 14 -7 14 -7 0 -10 8 -7 20 3 10 0 22 -7 25
-6 3 3 3 19 0 28 -4 28 -4 8 7 -13 6 -23 16 -23 22 0 6 -4 5 -9 -3 -7 -10 -9
-8 -8 10 0 13 -3 33 -7 44 -6 15 -5 16 2 6 10 -14 9 18 -1 74 -2 11 0 22 4 25
5 3 -2 12 -14 19 -19 12 -20 12 -11 0 5 -8 10 -21 9 -29 -1 -8 2 -22 6 -31 4
-8 3 -22 -3 -30 -8 -12 -9 -11 -5 2 3 9 -1 26 -9 37 -10 14 -11 23 -4 27 8 5
7 11 -1 21 -9 11 -7 16 12 23 13 5 28 6 33 3 5 -3 6 0 2 6 -3 6 -18 9 -31 6
-14 -2 -25 0 -25 5 0 5 15 8 34 7 19 -1 32 2 30 6 -2 3 0 9 6 13 5 3 10 1 10
-6 0 -7 3 -9 6 -6 4 4 -1 18 -10 32 -9 14 -12 25 -7 25 6 0 15 -8 20 -17 6
-11 11 -13 11 -5 0 7 5 10 11 7 6 -4 5 2 -2 13 -7 12 -16 19 -19 17 -4 -2 -7
2 -7 10 0 8 4 15 9 15 4 0 8 -4 8 -10 0 -5 5 -10 11 -10 6 0 8 7 5 16 -4 10
-2 13 6 8 8 -5 9 -2 5 9 -3 9 -1 19 5 23 6 4 8 3 5 -3 -4 -6 0 -16 7 -22 11
-9 16 -9 22 0 4 7 3 9 -3 6 -7 -4 -10 4 -9 22 0 20 5 27 15 23 10 -4 13 -1 8
12 -4 10 -3 15 3 11 6 -3 14 5 20 19 12 32 15 32 16 1 1 -13 -1 -23 -5 -22 -3
1 -16 -8 -28 -20 -18 -18 -19 -24 -8 -33 10 -8 15 -8 21 1 5 8 3 9 -6 4 -8 -5
-11 -3 -8 6 3 8 10 13 16 12 6 -2 9 4 5 13 -3 8 -2 14 3 13 21 -4 34 2 32 14
-2 6 3 11 10 9 10 -2 10 2 0 18 -7 11 -17 20 -23 20 -5 0 0 7 12 15 14 10 20
22 17 33 -5 13 -4 14 4 3 6 -8 9 -27 7 -42 -2 -16 0 -31 4 -33 5 -3 7 18 5 46
-2 34 -8 55 -19 60 -12 7 -13 13 -3 31 10 21 10 21 -7 7 -17 -14 -17 -14 -7 6
9 17 9 24 -3 34 -12 10 -13 16 -3 28 9 11 9 14 1 9 -7 -4 -16 0 -21 9 -6 11
-11 13 -16 5 -4 -6 -2 -11 4 -11 6 0 8 -5 4 -12 -5 -7 -2 -8 7 -3 8 5 11 5 7
0 -4 -4 -3 -13 2 -20 7 -8 5 -12 -5 -12 -7 0 -13 3 -13 6 3 15 -26 60 -35 54
-6 -3 -7 -1 -3 6 4 6 11 9 16 6 5 -3 12 0 16 6 4 7 3 10 -2 6 -5 -3 -20 1 -34
9 -14 7 -19 13 -12 14 6 0 12 5 12 10 0 6 -8 10 -17 8 -10 -2 -18 3 -18 12 -1
8 -7 13 -15 12 -8 -2 -12 0 -8 4 4 4 -15 32 -42 64 -36 41 -46 60 -38 68 8 8
5 9 -9 6 -12 -3 -24 -1 -27 5 -4 6 -1 9 7 5 8 -3 18 -1 21 4 6 11 -37 8 -56
-4 -9 -5 -8 -1 2 11 14 17 14 17 -7 5 -12 -8 -19 -18 -16 -24 3 -5 1 -6 -5 -2
-6 3 -14 2 -17 -4 -5 -8 -11 -8 -19 -1 -7 6 -16 7 -20 3 -4 -4 -16 -7 -27 -7
-10 0 -19 -3 -19 -7 0 -5 0 -11 0 -14 0 -4 7 -1 15 6 8 7 15 9 15 5 0 -4 7 -2
15 5 10 9 15 9 15 1 0 -6 -4 -12 -10 -12 -20 -3 -25 -4 -36 -11 -16 -10 -49
-2 -46 12 1 6 -2 8 -8 5 -8 -5 -5 -14 7 -27 18 -21 18 -21 -7 -8 -24 13 -24
12 -10 -5 9 -11 10 -16 3 -11 -8 4 -13 2 -13 -6 0 -10 -3 -9 -9 2 -6 8 -7 19
-3 25 3 5 -2 4 -10 -3 -9 -8 -14 -20 -11 -28 4 -10 0 -12 -13 -7 -12 4 -15 3
-10 -5 6 -10 -6 -17 -18 -9 -2 1 -13 -6 -24 -16 -14 -13 -22 -15 -27 -7 -4 6
-13 9 -21 6 -8 -3 -14 0 -14 7 0 8 -3 8 -9 -2 -7 -11 -9 -11 -14 0 -4 9 -6 8
-6 -5 -1 -12 4 -16 14 -12 8 3 15 1 15 -4 0 -15 -33 -11 -55 7 -13 10 -15 14
-4 10 9 -3 16 0 16 8 0 7 -8 10 -20 7 -15 -4 -18 -2 -12 9 7 11 5 11 -10 -1
-11 -9 -16 -10 -11 -2 4 7 1 12 -9 12 -12 0 -15 6 -10 23 7 22 7 22 -9 2 -13
-16 -15 -17 -10 -2 4 12 1 17 -11 17 -10 0 -13 -5 -9 -12 4 -7 3 -8 -4 -4 -8
5 -9 13 -2 25 12 24 3 32 -25 21 -29 -11 -59 15 -34 31 9 5 10 9 2 9 -6 0 -15
-5 -19 -11 -5 -8 -10 -6 -16 5 -5 9 -13 14 -19 11 -5 -4 -12 1 -15 9 -3 9 -14
16 -23 17 -12 0 -13 2 -2 6 8 3 21 -3 29 -13 14 -18 14 -18 8 -1 -3 10 -6 21
-6 23 0 2 -11 4 -24 4 -13 0 -26 7 -30 15 -4 13 -2 13 14 5 13 -7 21 -7 26 2
4 7 3 8 -5 4 -6 -4 -14 0 -17 8 -3 9 -10 14 -14 11 -5 -3 -11 -1 -14 4 -4 5
-2 12 4 16 6 4 7 11 4 17 -4 7 -2 8 5 4 6 -4 8 -12 5 -18 -4 -6 -2 -8 4 -5 5
4 8 16 5 27 -3 11 -9 17 -15 14 -5 -3 -2 11 6 31 14 32 14 36 0 42 -12 4 -9
10 13 24 15 11 23 19 17 19 -7 0 -15 7 -18 16 -3 8 -2 12 4 9 6 -3 10 1 10 10
0 9 5 13 11 10 6 -4 8 -14 4 -23 -3 -9 -3 -13 2 -9 12 13 12 67 -1 67 -6 0 -4
5 4 10 20 13 4 13 -23 -1 -15 -7 -12 -1 11 20 30 29 29 36 -8 32 -13 -2 -13 0
-1 8 17 11 22 49 8 58 -6 3 -7 1 -3 -5 3 -6 2 -13 -3 -16 -11 -7 -9 13 3 33 6
9 5 12 -2 7 -6 -3 -13 2 -15 11 -4 15 -5 15 -6 -2 -2 -16 -5 -15 -17 10 -8 17
-12 22 -9 13 2 -10 0 -18 -5 -18 -6 0 -10 5 -10 11 0 5 -4 8 -9 4 -5 -3 -13 0
-17 6 -4 7 -3 9 3 6 6 -4 17 1 24 11 13 15 12 16 -3 3 -10 -7 -18 -10 -18 -6
0 4 -7 1 -16 -6 -15 -12 -16 -11 -10 11 5 17 4 21 -2 11 -12 -17 -71 -6 -79
15 -4 12 -8 12 -21 2 -13 -11 -15 -10 -9 6 6 16 5 17 -7 7 -10 -8 -16 -9 -21
-1 -3 6 -11 8 -16 5 -5 -4 -20 6 -35 20 -25 25 -25 25 -18 3 6 -19 4 -21 -7
-12 -8 6 -22 10 -32 9 -9 -2 -24 6 -32 18 -8 12 -15 16 -15 10 0 -14 -42 -13
-52 2 -5 6 -8 5 -8 -3 0 -7 -4 -11 -9 -7 -5 3 -12 1 -16 -5 -4 -6 -10 -8 -15
-5 -5 3 -12 0 -16 -6 -4 -7 -3 -9 3 -6 6 4 16 0 23 -7 9 -12 7 -17 -9 -25 -13
-7 -21 -8 -24 -1 -3 6 -4 5 -3 -2 2 -7 12 -12 22 -10 18 2 18 2 1 -9 -13 -8
-22 -8 -32 1 -10 8 -15 8 -21 -1 -4 -7 -3 -9 4 -5 6 3 14 1 19 -6 14 -24 11
-37 -9 -33 -16 3 -17 1 -8 -10 8 -9 8 -15 0 -20 -6 -3 -7 -11 -4 -17 5 -7 2
-8 -6 -3 -16 10 -32 -16 -19 -31 8 -9 4 -11 -13 -6 -21 5 -22 4 -9 -12 12 -14
12 -19 2 -26 -8 -4 -10 -13 -7 -19 4 -6 4 -10 -1 -9 -4 2 -9 -1 -11 -7 -2 -5
-10 -17 -18 -26 -8 -9 -13 -18 -12 -20 2 -2 1 -3 -1 -1 -3 1 -10 -7 -16 -19
-11 -19 -13 -19 -18 -5 -4 10 -3 15 1 12 4 -3 13 4 20 14 9 14 9 21 0 26 -7 4
-8 3 -4 -4 3 -6 -2 -16 -13 -22 -13 -7 -18 -18 -16 -33 4 -20 3 -21 -9 -4 -7
9 -19 17 -27 17 -11 0 -11 -2 1 -10 22 -14 -6 -13 -33 2 -21 10 -21 10 -7 -7
14 -17 13 -17 -5 -8 -11 6 -27 8 -35 5 -8 -3 -4 5 10 17 l25 22 -25 -14 c-14
-8 -33 -13 -43 -12 -9 2 -15 -1 -12 -5 3 -5 -4 -8 -15 -7 -11 1 -20 5 -20 10
0 4 -5 5 -10 2 -6 -4 -8 -10 -6 -14 3 -4 -1 -8 -9 -8 -8 0 -11 5 -7 11 10 17
11 37 1 30 -5 -3 -7 -9 -4 -14 3 -4 -2 -10 -10 -14 -8 -3 -15 -1 -15 5 0 6 -7
6 -19 -1 -28 -15 -37 -13 -49 13 l-12 22 3 -22 c1 -12 -2 -22 -8 -22 -5 -1
-10 6 -10 15 0 8 -8 20 -17 25 -14 8 -16 7 -12 -6 3 -8 10 -12 15 -9 5 3 6 -3
2 -12 -5 -13 -9 -11 -23 15 -9 18 -20 28 -25 24 -4 -4 -5 -2 -1 5 5 7 15 11
23 8 8 -4 11 -1 7 5 -3 6 -15 9 -25 6 -11 -3 -17 -1 -13 4 3 5 -1 9 -8 9 -8 0
-9 3 -3 8 13 9 18 35 5 27 -5 -3 -10 -2 -10 4 0 5 3 11 8 14 4 2 1 2 -7 0 -13
-3 -60 47 -52 57 2 3 14 4 25 3 19 -3 19 -2 -2 7 -36 15 -63 52 -50 68 8 10 6
11 -8 5 -17 -6 -18 -5 -4 13 8 10 11 16 6 12 -5 -4 -23 8 -40 28 -23 26 -37
34 -56 31 -14 -3 -31 0 -38 6 -9 7 -16 6 -25 -2 -9 -10 -8 -11 8 -6 16 5 17 5
5 -3 -10 -8 -18 -8 -27 0 -7 6 -13 7 -13 2 0 -5 -5 -2 -10 6 -6 9 -10 11 -10
3z m950 -23 c0 -5 -5 -10 -11 -10 -5 0 -7 5 -4 10 3 6 8 10 11 10 2 0 4 -4 4
-10z m300 -160 c0 -5 -2 -10 -4 -10 -3 0 -8 5 -11 10 -3 6 -1 10 4 10 6 0 11
-4 11 -10z m-1416 -18 c3 -5 -1 -9 -9 -9 -8 0 -12 4 -9 9 3 4 7 8 9 8 2 0 6
-4 9 -8z m-30 -20 c2 -4 -5 -9 -17 -9 -17 -2 -19 0 -7 7 18 12 18 12 24 2z
m1506 -2 c0 -5 -2 -10 -4 -10 -3 0 -8 5 -11 10 -3 6 -1 10 4 10 6 0 11 -4 11
-10z m125 -20 c-3 -5 -12 -10 -18 -10 -7 0 -6 4 3 10 19 12 23 12 15 0z m-130
-20 c3 -5 1 -10 -4 -10 -6 0 -11 5 -11 10 0 6 2 10 4 10 3 0 8 -4 11 -10z
m-1510 -20 c3 -6 -1 -7 -9 -4 -18 7 -21 14 -7 14 6 0 13 -4 16 -10z m1640 -20
c3 -6 -4 -10 -17 -10 -18 0 -20 2 -8 10 19 12 18 12 25 0z m-147 -25 c-3 -3
-9 2 -12 12 -6 14 -5 15 5 6 7 -7 10 -15 7 -18z m-1488 -8 c0 -2 -10 -12 -22
-23 l-23 -19 19 23 c18 21 26 27 26 19z m305 -86 c-9 -8 -36 -10 -30 -2 2 4
11 8 20 8 8 0 13 -3 10 -6z m1205 5 c0 -3 -4 -8 -10 -11 -5 -3 -10 -1 -10 4 0
6 5 11 10 11 6 0 10 -2 10 -4z m-344 -52 c1 -9 0 -13 -4 -10 -3 4 -7 14 -8 22
-1 9 0 13 4 10 3 -4 7 -14 8 -22z m-842 -12 c2 -4 -5 -9 -17 -9 -17 -2 -19 0
-7 7 18 12 18 12 24 2z m1186 -7 c0 -2 -9 -3 -19 -2 -11 0 -18 5 -15 9 4 6 34
0 34 -7z m-3 -30 c0 -8 -4 -12 -9 -9 -5 3 -6 10 -3 15 9 13 12 11 12 -6z
m-1520 -19 c2 -19 1 -19 -8 -3 -6 9 -15 14 -21 11 -6 -4 -8 -3 -5 3 11 17 33
10 34 -11z m343 14 c0 -5 -2 -10 -4 -10 -3 0 -8 5 -11 10 -3 6 -1 10 4 10 6 0
11 -4 11 -10z m800 -56 c0 -8 -19 -13 -24 -6 -3 5 1 9 9 9 8 0 15 -2 15 -3z
m-1140 -18 c0 -2 -7 -7 -16 -10 -8 -3 -12 -2 -9 4 6 10 25 14 25 6z m1091 -23
c-12 -20 -14 -14 -5 12 4 9 9 14 11 11 3 -2 0 -13 -6 -23z m419 1 c0 -8 -19
-13 -24 -6 -3 5 1 9 9 9 8 0 15 -2 15 -3z m-1049 -41 c13 -16 12 -17 -3 -4
-10 7 -18 15 -18 17 0 8 8 3 21 -13z m1038 4 c8 -10 7 -14 -2 -14 -8 0 -14 6
-14 14 0 7 1 13 2 13 2 0 8 -6 14 -13z m-1693 -9 c4 -7 3 -8 -4 -4 -7 4 -12 2
-12 -3 0 -6 -5 -11 -11 -11 -8 0 -8 5 1 15 15 18 17 18 26 3z m1959 -28 c-3
-5 -12 -10 -18 -10 -7 0 -6 4 3 10 19 12 23 12 15 0z m-1755 -4 c0 -2 -8 -10
-17 -17 -16 -13 -17 -12 -4 4 13 16 21 21 21 13z m990 -6 c0 -5 -4 -10 -10
-10 -5 0 -10 5 -10 10 0 6 5 10 10 10 6 0 10 -4 10 -10z m-325 -20 c3 -5 1
-10 -4 -10 -6 0 -11 5 -11 10 0 6 2 10 4 10 3 0 8 -4 11 -10z m260 0 c3 -5 1
-10 -4 -10 -6 0 -11 5 -11 10 0 6 2 10 4 10 3 0 8 -4 11 -10z m-1225 -10 c0
-5 -5 -10 -11 -10 -5 0 -7 5 -4 10 3 6 8 10 11 10 2 0 4 -4 4 -10z m863 -6 c4
-1 12 -2 17 -3 6 0 10 -6 10 -12 0 -8 -4 -9 -13 0 -8 6 -16 9 -19 6 -3 -3 -11
2 -19 12 -12 15 -12 16 1 8 8 -6 18 -10 23 -11z m136 -9 c1 6 5 4 10 -4 11
-18 44 -24 38 -8 -3 7 -10 11 -16 10 -6 -2 -11 2 -11 7 0 14 13 13 29 -2 12
-11 13 -9 7 7 -5 17 -4 18 6 5 17 -19 49 -25 44 -8 -1 7 -1 10 1 5 3 -4 10 -4
15 -1 6 4 8 2 4 -4 -3 -6 -2 -13 4 -17 5 -3 10 -1 10 6 0 7 3 9 6 6 9 -9 -16
-38 -27 -31 -5 3 -9 0 -9 -5 0 -6 -5 -11 -11 -11 -8 0 -8 4 1 14 9 12 8 15 -9
13 -12 -1 -21 -7 -21 -14 0 -6 -4 -15 -10 -18 -6 -3 -7 1 -4 10 7 17 -15 18
-27 1 -4 -4 -17 -3 -29 4 -18 10 -24 9 -32 -1 -8 -11 -9 -10 -4 4 3 9 1 17 -4
17 -5 0 -11 -7 -13 -15 -3 -11 -4 -10 -3 2 1 12 9 17 23 16 17 -2 20 2 17 20
-4 21 -4 21 5 2 5 -11 10 -15 10 -10z m-65 -9 c-3 -9 -12 -16 -20 -16 -11 0
-10 4 4 18 20 22 25 21 16 -2z m249 -11 c-3 -9 -8 -14 -10 -11 -3 3 -2 9 2 15
9 16 15 13 8 -4z m617 -9 c0 -2 -8 -10 -17 -17 -16 -13 -17 -12 -4 4 13 16 21
21 21 13z m-1910 -26 c0 -5 -4 -10 -10 -10 -5 0 -10 5 -10 10 0 6 5 10 10 10
6 0 10 -4 10 -10z m2360 6 c0 -3 -4 -8 -10 -11 -5 -3 -10 -1 -10 4 0 6 5 11
10 11 6 0 10 -2 10 -4z m-438 -204 c-5 -15 -4 -15 11 -3 9 7 14 18 10 24 -3 6
-1 7 6 3 7 -5 9 -12 3 -19 -4 -7 -7 -18 -6 -24 1 -7 2 -18 3 -24 0 -6 8 -4 16
5 19 19 42 11 51 -16 5 -16 8 -18 15 -7 6 9 9 10 9 2 0 -20 -18 -24 -29 -6 -6
10 -10 14 -11 8 0 -18 15 -31 38 -32 12 -1 20 2 18 6 -3 4 1 8 8 8 11 0 12 -4
3 -18 -6 -10 -15 -16 -19 -13 -4 3 -16 0 -25 -6 -15 -9 -14 -10 6 -4 18 5 22
3 16 -7 -5 -8 4 -3 20 11 l28 25 -18 -27 c-16 -25 -16 -28 -1 -34 9 -3 13 -11
9 -18 -4 -7 -1 -7 9 1 8 7 18 10 22 6 4 -4 4 0 0 10 -3 10 -1 17 5 17 6 0 10
-6 9 -12 -2 -7 4 -12 12 -10 12 3 13 1 3 -9 -19 -19 -16 -34 4 -18 14 12 16
12 8 0 -6 -11 -4 -13 8 -8 11 4 14 2 11 -7 -3 -8 3 -20 14 -27 18 -13 28 -54
10 -43 -5 3 -5 10 -2 16 5 7 2 8 -6 3 -9 -6 -11 -4 -5 5 6 9 4 11 -5 5 -9 -6
-11 -4 -5 5 6 9 4 11 -5 5 -9 -6 -11 -4 -5 5 6 9 4 11 -4 6 -9 -6 -8 -13 6
-29 29 -35 37 -38 51 -20 11 16 12 16 9 -4 -2 -13 -7 -26 -12 -30 -4 -5 -5 -2
-1 4 5 9 2 11 -9 6 -12 -4 -13 -8 -5 -13 7 -4 17 -14 22 -21 8 -12 9 -11 5 1
-4 15 15 40 29 40 5 0 3 -5 -4 -12 -17 -17 -15 -55 4 -62 10 -4 13 -2 7 7 -13
21 -12 36 4 30 8 -3 12 -12 9 -20 -3 -7 1 -16 10 -20 8 -3 13 -12 10 -19 -6
-16 27 -37 40 -26 5 4 3 0 -4 -9 -13 -17 -7 -29 11 -25 7 2 9 1 5 -1 -12 -7
-9 -23 6 -38 7 -8 17 -11 22 -7 5 4 2 -1 -5 -10 -7 -10 -20 -18 -27 -18 -8 0
-14 -2 -14 -4 0 -2 -3 -11 -6 -20 -3 -9 -1 -16 5 -16 6 0 10 5 9 11 -2 6 3 14
11 17 8 2 11 0 8 -5 -3 -5 0 -10 8 -10 11 0 12 4 4 14 -8 9 -8 13 0 13 6 0 11
-5 11 -11 0 -5 5 -7 11 -4 6 4 5 -2 -2 -13 -7 -11 -18 -18 -25 -15 -6 2 -15 0
-19 -6 -3 -6 0 -9 7 -6 9 4 14 -2 15 -16 2 -18 0 -19 -15 -7 -15 12 -16 11 -3
-4 14 -19 35 -14 27 7 -5 13 12 35 26 35 4 0 8 -5 8 -11 0 -5 -4 -7 -10 -4 -5
3 -10 -1 -10 -10 0 -9 4 -14 9 -11 5 4 7 -2 4 -13 -3 -10 3 -33 12 -51 9 -18
12 -29 6 -26 -6 4 -19 2 -30 -4 -12 -6 -22 -6 -26 -1 -6 11 -45 10 -45 -1 0
-4 -7 -5 -16 -1 -12 4 -11 8 8 18 15 8 30 9 43 3 19 -9 19 -8 1 6 -13 11 -25
12 -43 5 -14 -5 -28 -8 -30 -5 -3 2 5 7 16 11 20 6 20 8 6 36 -9 16 -12 29 -8
29 5 0 1 5 -8 10 -10 6 -15 21 -14 45 1 19 -2 35 -6 35 -5 0 -9 -7 -9 -17 0
-9 -3 -14 -6 -10 -4 3 -3 14 1 24 13 29 14 43 3 43 -6 0 -8 -7 -4 -15 3 -8 1
-15 -4 -15 -6 0 -10 11 -10 25 0 14 -4 25 -9 25 -9 0 -22 31 -26 63 -1 10 -6
21 -10 25 -5 4 -6 0 -3 -8 4 -11 -1 -16 -13 -17 -10 -1 -19 3 -19 8 0 6 5 7
10 4 6 -3 10 -1 10 4 0 6 -4 11 -10 11 -5 0 -10 4 -10 9 0 4 11 7 25 6 14 -2
23 1 20 5 -3 5 -13 6 -22 3 -12 -5 -14 -3 -8 8 5 8 0 7 -12 -4 -20 -17 -21
-17 -37 17 -20 42 -21 56 -2 31 8 -11 12 -24 9 -29 -4 -5 0 -6 7 -1 9 6 11 4
6 -6 -4 -8 -1 -6 7 3 8 10 18 14 22 10 5 -4 5 -2 1 5 -4 7 -13 10 -21 7 -12
-5 -39 27 -40 48 0 3 -4 10 -9 15 -5 4 -6 3 -2 -4 3 -6 2 -14 -3 -17 -5 -3 -7
-16 -5 -29 3 -13 -1 -9 -10 11 -8 18 -21 31 -28 30 -8 -2 -12 5 -10 16 2 12
-1 16 -9 10 -8 -5 -10 -3 -4 6 6 10 4 12 -9 7 -10 -4 -19 -1 -22 8 -4 8 -11
12 -17 8 -6 -3 -7 -1 -3 6 6 9 17 7 42 -8 19 -11 34 -17 34 -12 0 5 -13 14
-30 21 -16 7 -27 17 -24 22 4 6 -3 5 -14 -1 -26 -14 -35 -14 -27 -1 3 6 1 10
-5 10 -6 0 -8 6 -5 13 4 6 -1 3 -10 -8 -16 -19 -16 -19 -11 10 4 17 3 24 0 17
-3 -6 -9 -10 -14 -7 -4 2 -6 -10 -4 -28 3 -26 1 -29 -7 -14 -5 9 -8 21 -5 26
3 4 -1 17 -8 27 -10 13 -11 23 -4 31 8 9 7 13 -3 13 -10 1 -8 5 5 15 10 8 22
12 27 10 4 -3 10 -1 13 4 4 6 -7 8 -26 6 -27 -3 -30 -2 -15 6 15 9 16 13 5 27
-11 13 -11 14 1 7 11 -6 13 -4 8 11 -7 18 -7 18 7 1 8 -11 12 -26 8 -35z
m-1533 17 c1 8 4 12 7 9 5 -6 2 -15 -25 -66 -11 -21 -10 -22 7 -13 11 6 22 8
25 5 8 -8 -2 -56 -16 -73 -10 -12 -9 -14 6 -8 11 4 16 3 12 -4 -4 -5 -16 -7
-27 -3 -14 4 -18 2 -14 -5 4 -6 2 -11 -4 -11 -7 0 -9 9 -6 23 3 12 3 17 0 10
-3 -7 -11 -11 -17 -9 -7 1 -9 1 -5 -1 8 -5 1 -12 -42 -48 -13 -11 -20 -15 -17
-8 7 12 -27 29 -50 25 -7 -2 -9 6 -6 19 4 14 2 20 -5 16 -14 -10 -8 -42 9 -43
8 -1 19 -2 25 -3 7 0 14 -10 17 -21 3 -10 2 -19 -2 -18 -17 2 -31 -3 -28 -10
1 -4 -8 -20 -21 -36 -20 -26 -25 -28 -48 -18 -31 15 -45 15 -21 1 9 -6 15 -14
12 -19 -3 -5 0 -12 6 -16 8 -4 9 -3 5 4 -4 7 -2 12 3 12 6 0 11 -4 11 -8 0
-16 -13 -21 -31 -12 -12 7 -20 6 -25 -2 -4 -7 -3 -8 4 -4 19 12 14 -30 -5 -50
-10 -10 -18 -20 -18 -23 -1 -3 -7 -17 -14 -30 l-14 -25 -18 23 c-23 28 -25 19
-4 -13 13 -20 14 -26 2 -37 -7 -8 -12 -21 -10 -29 4 -13 3 -13 -6 0 -7 11 -5
20 7 35 16 19 16 19 -2 5 -17 -14 -18 -13 -12 8 4 12 3 22 -2 22 -6 0 -9 -11
-7 -25 1 -15 -4 -29 -14 -35 -9 -4 -12 -12 -8 -16 5 -5 13 -2 18 6 9 12 10 12
5 -2 -3 -11 0 -18 7 -19 9 0 9 -2 -1 -6 -6 -2 -10 -9 -6 -14 3 -5 0 -9 -7 -9
-7 0 -9 -3 -6 -6 3 -4 0 -15 -7 -26 -8 -11 -12 -27 -9 -37 6 -22 -21 -35 -46
-21 -14 7 -23 5 -35 -9 -15 -16 -15 -19 -2 -24 10 -4 13 -1 10 7 -3 8 0 17 7
22 9 5 10 2 6 -9 -3 -9 -1 -19 5 -23 7 -5 8 -2 3 6 -6 9 -4 11 5 5 9 -6 11 -4
5 5 -6 9 -4 11 4 5 9 -5 10 -10 2 -18 -14 -14 -61 -17 -61 -5 0 5 -4 6 -10 3
-5 -3 -7 0 -4 9 7 19 -24 15 -37 -5 -7 -10 -8 -7 -6 11 2 14 9 26 15 26 7 1
17 2 22 3 6 0 10 6 10 12 0 5 -4 7 -10 4 -16 -10 -12 2 7 20 14 14 14 18 2 26
-16 10 -8 12 15 3 12 -5 14 -10 6 -19 -8 -9 -6 -14 4 -18 11 -4 13 -1 9 10 -5
12 -3 14 8 8 11 -7 12 -6 2 7 -7 8 -9 18 -5 22 4 4 1 6 -7 4 -7 -1 -16 4 -18
12 -3 9 -1 11 4 5 10 -13 65 -16 57 -3 -3 5 -12 7 -19 4 -8 -3 -18 1 -24 8 -8
9 -3 12 17 10 15 -1 28 -3 30 -4 1 -1 7 -3 14 -4 14 -1 24 -26 10 -26 -5 0 -9
-12 -9 -26 0 -17 2 -22 8 -13 4 7 5 17 2 23 -4 5 0 6 8 1 8 -5 11 -5 7 0 -4 4
-3 16 3 26 5 11 6 19 2 18 -4 -1 -11 0 -15 1 -5 1 -14 3 -20 4 -7 1 -12 11
-12 23 1 12 -3 21 -9 20 -5 -1 -11 4 -12 11 -2 7 -1 8 2 2 2 -5 9 -7 14 -4 6
4 6 11 -1 19 -8 9 -6 12 7 12 36 0 42 3 40 22 0 10 -6 17 -13 14 -6 -2 -14 3
-18 13 -5 14 -4 15 9 4 8 -7 15 -9 15 -4 0 5 7 1 14 -9 12 -16 14 -16 20 -2 3
9 2 13 -4 10 -6 -3 -10 4 -10 17 0 18 -2 20 -10 8 -12 -18 -12 -2 0 25 7 17 9
17 9 3 1 -10 6 -18 12 -18 5 0 7 -4 4 -10 -4 -6 1 -7 11 -3 15 5 15 7 0 15 -9
5 -14 13 -11 19 4 5 17 2 31 -7 13 -9 27 -14 30 -11 3 3 -3 8 -14 11 -11 4
-23 14 -26 22 -3 8 -2 12 4 9 6 -3 10 -1 10 5 0 6 5 8 10 5 6 -4 8 -10 5 -15
-3 -5 4 -14 15 -20 17 -9 19 -14 10 -26 -7 -7 -17 -11 -23 -7 -6 3 -7 1 -3 -5
3 -6 -1 -15 -10 -20 -13 -7 -14 -13 -5 -28 11 -18 11 -18 9 1 -2 12 2 19 10
17 8 -1 11 2 8 6 -3 5 3 17 14 27 25 23 25 32 0 40 -11 4 -18 10 -15 15 7 12
-22 33 -37 25 -7 -4 -5 0 4 8 10 8 14 17 10 21 -4 4 -2 7 3 6 21 -5 29 1 15
10 -11 7 -11 10 -2 10 8 0 10 5 6 13 -4 6 -4 9 1 5 12 -11 66 25 60 40 -2 7
-1 11 3 8 21 -13 50 31 29 45 -4 3 6 6 23 7 19 0 28 -3 24 -10 -4 -7 -2 -8 4
-4 7 4 12 0 13 -11 0 -11 3 -13 6 -5 3 7 -2 21 -10 30 -21 23 -7 49 18 35 12
-7 14 -13 6 -17 -6 -4 -11 -2 -11 4 0 6 -5 8 -11 4 -8 -5 -6 -10 5 -16 19 -11
26 -7 30 14 1 7 5 19 10 26 4 7 5 20 2 28 -3 8 -2 12 3 9 5 -3 12 3 16 14 4
15 13 19 34 16 25 -3 28 -1 25 18 -4 21 -4 21 5 2 6 -12 10 -15 10 -6z m1601
-12 c0 -2 -9 -12 -20 -22 -24 -21 -27 -14 -4 9 15 15 24 20 24 13z m-1585 -17
c-3 -5 -1 -10 6 -10 7 0 10 -3 6 -6 -9 -9 -28 6 -22 17 4 5 8 9 11 9 3 0 2 -4
-1 -10z m-121 -45 c-4 -8 -11 -15 -16 -15 -6 0 -5 6 2 15 7 8 14 15 16 15 2 0
1 -7 -2 -15z m-950 -6 c-2 -4 2 -10 8 -12 8 -4 9 -6 2 -6 -6 -1 -17 5 -23 12
-8 10 -7 14 4 14 8 0 12 -4 9 -8z m34 -54 c-3 -3 -9 2 -12 12 -6 14 -5 15 5 6
7 -7 10 -15 7 -18z m2729 -14 c-1 -11 -6 -17 -14 -14 -10 4 -11 9 -2 19 15 19
18 18 16 -5z m-1917 -11 c0 -5 -5 -10 -11 -10 -5 0 -7 5 -4 10 3 6 8 10 11 10
2 0 4 -4 4 -10z m1714 -6 c3 -8 2 -12 -4 -9 -6 3 -10 10 -10 16 0 14 7 11 14
-7z m-1499 -13 c-3 -6 3 -14 12 -20 10 -6 13 -11 8 -11 -13 0 -35 20 -35 32 0
4 5 8 11 8 5 0 8 -4 4 -9z m718 -13 c-5 -7 -8 -19 -7 -25 1 -7 2 -19 3 -25 1
-10 4 -9 10 1 8 12 13 12 36 -3 15 -10 25 -13 21 -8 -9 14 11 25 27 15 6 -4
23 -8 37 -8 14 0 24 -6 23 -13 -2 -7 1 -12 6 -12 6 0 9 8 8 18 -1 15 -8 19
-35 17 -21 -1 -36 4 -39 12 -4 11 -9 11 -24 -3 -11 -9 -19 -12 -19 -6 0 5 -11
9 -24 8 -17 -2 -23 1 -19 11 4 10 9 11 18 3 10 -8 16 -7 24 7 6 10 11 12 11 6
0 -7 5 -13 11 -13 5 0 8 4 5 8 -3 5 1 9 9 9 8 0 13 -5 12 -10 -1 -5 4 -12 12
-15 9 -3 11 0 7 9 -4 8 -1 6 7 -4 17 -20 25 -21 46 -4 11 9 13 9 8 0 -4 -6 -3
-14 3 -18 5 -3 10 -1 10 6 0 7 8 5 21 -7 17 -16 22 -16 31 -4 8 13 9 12 5 -1
-3 -9 0 -23 6 -30 10 -11 9 -11 -5 0 -10 7 -18 10 -18 5 0 -5 -5 -2 -10 6 -13
21 -50 22 -42 2 4 -11 7 -12 10 -4 6 19 20 14 27 -9 5 -15 9 -18 15 -9 6 9 10
8 17 -4 5 -9 19 -18 31 -21 13 -2 20 -1 18 4 -3 4 -1 13 4 21 7 11 9 8 8 -10
-1 -14 -7 -29 -13 -33 -6 -6 -4 -7 6 -4 9 3 21 1 27 -5 8 -8 16 -7 29 2 14 11
15 11 6 1 -12 -14 -7 -41 8 -41 4 0 6 7 3 15 -4 8 -1 15 6 15 6 0 9 -4 5 -9
-3 -6 3 -14 12 -20 10 -6 13 -11 6 -11 -14 0 -6 -30 9 -30 5 0 6 5 2 12 -4 7
-3 8 4 4 6 -4 9 -13 6 -21 -4 -8 -10 -13 -14 -10 -5 3 -11 1 -14 -4 -7 -11 13
-9 32 3 11 7 12 4 4 -10 -5 -11 -6 -27 -1 -39 l9 -20 -1 20 c-1 11 -1 24 0 29
1 12 31 -14 31 -28 0 -6 -5 -4 -11 4 -8 11 -9 6 -5 -20 4 -19 7 -40 8 -47 1
-7 5 -10 10 -7 4 3 8 1 8 -5 0 -5 -8 -15 -17 -20 -23 -13 -8 -14 17 -1 15 8
17 6 13 -10 -3 -11 -9 -18 -13 -15 -5 3 -11 1 -14 -4 -3 -4 4 -8 16 -7 14 1
22 -6 24 -21 2 -12 0 -24 -5 -27 -4 -3 -7 6 -5 19 3 30 1 30 -17 8 -10 -11
-10 -14 -1 -9 6 4 12 2 12 -3 0 -6 -6 -11 -12 -11 -8 0 -7 -4 3 -10 11 -6 15
-18 12 -35 -3 -13 -9 -23 -13 -20 -11 7 -6 -22 5 -32 4 -4 5 -3 2 3 -8 13 20
40 30 30 3 -3 1 -6 -6 -6 -7 0 -10 -4 -6 -9 3 -5 1 -12 -4 -15 -4 -3 -9 -16
-9 -28 -2 -49 -17 -82 -33 -73 -5 4 -9 1 -9 -5 0 -6 -6 -8 -12 -4 -7 4 -10 4
-6 -1 4 -4 3 -17 -3 -29 -9 -18 -8 -18 9 3 11 13 22 19 25 14 4 -6 -4 -19 -18
-29 -13 -10 -21 -22 -18 -27 3 -6 1 -7 -5 -3 -7 4 -13 2 -13 -3 -3 -20 -5 -26
-21 -56 -10 -16 -17 -24 -18 -17 0 15 -30 16 -30 1 0 -5 4 -8 8 -5 5 3 9 -2 9
-10 0 -9 -4 -11 -10 -5 -12 12 -37 3 -33 -12 1 -7 1 -9 -1 -4 -8 12 -25 8 -20
-5 5 -16 -60 -61 -68 -47 -4 5 -11 6 -17 3 -6 -4 -15 0 -20 7 -8 11 -8 10 -4
-4 9 -26 -5 -46 -15 -21 -7 17 -8 17 -8 -4 -1 -13 -5 -20 -11 -17 -6 4 -8 12
-4 18 3 7 -4 1 -15 -13 -14 -16 -19 -19 -15 -7 7 20 -11 24 -19 4 -7 -19 -116
-15 -128 4 -7 12 -9 11 -9 -1 0 -13 -1 -13 -10 0 -9 13 -11 13 -20 0 -5 -8
-10 -10 -10 -5 0 6 -12 12 -27 13 -14 1 -35 9 -45 19 -10 9 -18 13 -18 9 0 -4
-13 2 -29 13 -15 11 -32 17 -36 13 -5 -4 -5 -1 -1 6 4 7 0 15 -11 19 -10 3
-22 13 -26 20 -5 7 -12 11 -18 8 -5 -3 -6 1 -3 9 3 9 9 16 13 16 4 0 8 7 8 16
0 13 -4 11 -17 -5 l-16 -22 -22 26 c-18 20 -20 30 -12 45 13 24 13 40 -1 18
-5 -10 -15 -18 -22 -18 -7 0 -6 4 3 10 10 6 11 10 3 10 -7 0 -13 9 -13 21 0
13 -4 18 -12 13 -7 -4 -10 -3 -5 1 4 5 0 17 -10 27 -15 17 -15 19 1 37 16 17
16 18 -7 16 -19 -2 -24 1 -22 19 4 36 5 37 16 30 8 -4 7 -9 -2 -15 -11 -6 -11
-11 -1 -21 6 -6 13 -9 13 -5 1 4 2 10 3 15 1 4 5 13 9 20 5 7 5 12 0 11 -20
-4 -24 2 -12 18 10 11 10 14 2 9 -7 -4 -13 -3 -13 1 0 5 6 15 13 22 10 11 10
13 0 7 -7 -4 -13 -3 -13 3 0 5 6 12 13 15 6 3 2 3 -10 0 -18 -4 -22 -2 -17 10
4 9 0 24 -7 34 -13 16 -13 16 7 0 19 -16 20 -16 20 2 0 10 -4 16 -8 14 -4 -2
-5 5 -3 17 3 13 -1 29 -8 38 -9 12 -9 13 1 7 7 -4 12 -2 12 4 0 6 5 8 11 4 8
-4 7 -9 -2 -15 -11 -7 -10 -9 4 -9 20 0 20 0 6 36 -10 27 -9 27 9 11 15 -14
19 -14 19 -2 0 8 -3 13 -6 11 -3 -2 -11 2 -18 9 -18 19 12 28 31 10 19 -19 32
-19 17 -1 -9 11 -10 20 -1 38 9 19 9 21 -2 7 -17 -21 -48 -21 -40 0 4 10 7 11
10 3 3 -10 7 -10 18 -1 8 6 11 15 8 20 -3 5 1 6 9 3 8 -3 18 -1 21 5 4 6 13 8
21 5 8 -4 12 -11 8 -17 -4 -6 -1 -7 7 -2 10 6 10 11 -3 20 -9 7 -14 14 -11 17
3 4 0 9 -7 14 -7 4 -10 3 -6 -3 11 -17 -16 -34 -33 -21 -12 8 -12 9 2 4 10 -3
20 -1 23 4 3 4 1 10 -5 12 -6 2 -1 9 11 16 12 8 18 9 14 3 -9 -15 18 -14 33 1
7 7 12 17 12 22 0 6 -7 3 -14 -7 -12 -16 -14 -16 -20 -2 -3 9 -2 14 3 10 5 -3
11 1 14 7 3 10 7 10 19 1 17 -14 29 -8 22 12 -3 7 0 16 5 20 6 3 8 11 5 17 -4
7 -2 8 4 4 7 -4 12 -2 12 5 0 7 3 9 7 6 3 -4 -2 -17 -13 -29 -10 -12 -13 -18
-7 -14 7 4 21 3 31 -3 12 -6 23 -6 33 0 12 8 12 10 -1 8 -29 -3 -41 1 -35 11
4 6 12 7 18 3 7 -4 6 1 -2 10 -12 15 -12 17 3 11 9 -4 16 -3 15 2 -3 19 2 25
14 17 36 -23 54 -9 32 27 -5 9 0 8 13 -4 12 -11 22 -16 22 -11 0 4 7 2 15 -5
8 -7 15 -9 15 -5 0 4 8 1 18 -6 15 -13 16 -12 3 3 -7 10 -17 15 -22 12 -5 -3
-9 0 -9 6 0 7 8 9 22 4 21 -6 22 -5 8 11 -8 11 -10 16 -3 12 6 -4 14 -3 18 3
3 5 9 10 12 10 3 0 1 -6 -4 -12z m797 -13 c11 -13 10 -14 -4 -9 -9 3 -16 10
-16 15 0 13 6 11 20 -6z m-915 -23 c-3 -3 -11 0 -18 7 -9 10 -8 11 6 5 10 -3
15 -9 12 -12z m-1535 -12 c9 -6 11 -10 3 -10 -7 0 -10 -7 -6 -17 3 -10 4 -16
2 -13 -2 3 -13 15 -23 28 -14 16 -16 22 -5 22 8 0 21 -5 29 -10z m940 6 c0 -2
-7 -7 -16 -10 -8 -3 -12 -2 -9 4 6 10 25 14 25 6z m998 -48 c-7 -19 -21 -12
-23 9 -1 18 1 20 12 11 8 -6 12 -15 11 -20z m-1361 -40 c-3 -8 -6 -5 -6 6 -1
11 2 17 5 13 3 -3 4 -12 1 -19z m1413 2 c0 -5 -2 -10 -4 -10 -3 0 -8 5 -11 10
-3 6 -1 10 4 10 6 0 11 -4 11 -10z m1335 -28 c-10 -10 -35 -10 -41 -1 -3 5 0
8 8 7 7 -2 12 3 10 11 -3 12 0 12 13 1 8 -7 13 -15 10 -18z m-884 -9 c13 -16
12 -17 -3 -4 -17 13 -22 21 -14 21 2 0 10 -8 17 -17z m-2301 -17 c0 -2 -7 -7
-16 -10 -8 -3 -12 -2 -9 4 6 10 25 14 25 6z m394 -68 c-3 -4 -11 -5 -19 -1
-21 7 -19 12 4 10 11 0 18 -5 15 -9z m-46 -67 c11 -7 10 -9 -3 -14 -9 -4 -14
-3 -10 2 3 5 -1 12 -7 14 -7 3 -8 6 -3 6 6 0 16 -3 23 -8z m1659 -21 c1 -16
-1 -17 -12 -7 -11 10 -8 19 10 27 1 0 1 -9 2 -20z m-2055 3 c-6 -2 -9 -10 -6
-15 4 -7 2 -8 -5 -4 -13 9 -5 26 12 25 9 0 8 -2 -1 -6z m2363 -41 c-3 -3 -11
0 -18 7 -9 10 -8 11 6 5 10 -3 15 -9 12 -12z m-1520 -34 c-1 -12 -8 -24 -16
-26 -9 -2 -10 0 -4 5 6 4 10 18 9 30 -1 12 2 21 6 18 4 -2 6 -14 5 -27z m1501
-4 c1 -9 0 -13 -4 -10 -3 4 -7 14 -8 22 -1 9 0 13 4 10 3 -4 7 -14 8 -22z m44
12 c0 -2 -7 -7 -16 -10 -8 -3 -12 -2 -9 4 6 10 25 14 25 6z m1 -85 c-2 -13 0
-13 14 -1 14 11 16 11 13 -1 -2 -8 2 -13 8 -12 7 1 9 -8 6 -24 -3 -18 -1 -24
7 -19 6 4 11 2 11 -4 0 -6 4 -9 9 -5 5 3 12 1 15 -4 4 -5 1 -13 -5 -17 -7 -4
-9 -3 -6 2 3 5 -3 10 -14 10 -24 0 -10 -15 19 -21 16 -3 22 1 22 15 0 24 12
31 30 18 12 -8 12 -9 -2 -4 -13 4 -18 0 -18 -15 0 -11 4 -18 8 -15 4 2 9 -4 9
-15 2 -18 -7 -23 -36 -20 -11 2 -11 0 0 -12 9 -10 18 -12 26 -6 7 7 14 6 19
-2 4 -8 3 -9 -5 -5 -6 4 -14 1 -17 -8 -3 -8 -13 -12 -22 -9 -14 4 -14 3 -3 -5
8 -6 11 -17 8 -27 -4 -9 -3 -14 3 -10 6 3 10 12 10 20 0 8 3 16 8 19 4 2 6
-12 6 -32 -1 -21 3 -43 9 -51 10 -12 9 -12 -10 -1 -18 12 -20 17 -10 29 10 12
9 12 -10 0 -19 -11 -20 -15 -8 -22 9 -4 12 -13 9 -19 -4 -7 -2 -8 4 -4 7 4 12
3 12 -2 0 -19 -14 -21 -34 -5 -21 18 -21 18 -2 -5 11 -12 26 -21 34 -20 8 2
17 -4 19 -12 4 -13 3 -13 -6 0 -9 12 -11 10 -11 -12 0 -21 -4 -26 -20 -23 -11
2 -20 -1 -20 -6 0 -5 7 -9 16 -7 10 2 19 -3 22 -11 3 -8 0 -11 -7 -7 -7 5 -9
1 -5 -8 3 -9 11 -13 18 -9 6 3 8 3 4 -2 -4 -4 -3 -13 2 -20 7 -8 5 -12 -5 -12
-8 0 -12 4 -9 9 3 4 1 8 -4 8 -6 0 -12 -7 -16 -15 -3 -8 0 -14 6 -12 6 1 13
-4 16 -12 3 -8 0 -11 -7 -7 -7 5 -9 1 -5 -8 3 -9 10 -13 15 -10 5 3 9 2 8 -3
-1 -4 0 -10 1 -13 8 -21 6 -37 -5 -37 -7 0 -12 8 -10 19 2 10 -1 18 -6 18 -6
0 -9 -6 -6 -12 2 -7 -3 -22 -12 -33 -15 -19 -15 -19 3 -5 18 14 19 13 13 -2
-3 -10 -2 -18 2 -18 5 0 11 6 14 13 3 6 4 2 4 -10 -1 -18 -6 -21 -27 -17 -25
4 -25 4 -2 -6 13 -5 20 -15 17 -20 -5 -8 -12 -7 -23 2 -15 12 -16 11 -3 -5 8
-10 20 -16 27 -13 7 3 16 0 20 -6 5 -7 2 -8 -6 -3 -10 6 -12 0 -8 -24 5 -31
-5 -42 -16 -18 -3 6 -4 3 -3 -8 2 -11 9 -19 15 -17 10 1 9 -2 0 -17 -7 -11
-16 -17 -22 -14 -5 3 -6 1 -2 -6 6 -9 11 -9 24 1 11 9 10 5 -3 -13 -11 -15
-23 -25 -28 -22 -4 2 -7 1 -6 -4 1 -4 1 -15 0 -23 -1 -11 -4 -11 -13 -2 -7 7
-17 12 -22 12 -6 0 0 -7 12 -16 12 -8 20 -20 16 -25 -4 -6 -11 -6 -19 1 -11
10 -13 8 -10 -10 7 -38 -17 -75 -47 -72 -3 1 -9 -6 -12 -14 -5 -12 -2 -15 11
-10 17 6 17 5 1 -8 -10 -7 -18 -18 -18 -25 0 -18 -16 -13 -18 7 -1 9 -3 29 -5
44 -2 16 -7 31 -10 35 -4 3 -2 12 4 20 6 7 7 13 3 13 -5 0 -10 14 -10 31 -1
18 1 26 6 19 5 -8 10 -9 14 -2 3 6 1 14 -5 17 -5 4 -8 13 -5 20 3 8 0 15 -6
17 -6 2 -8 10 -4 16 12 19 25 5 21 -23 -1 -14 0 -23 4 -20 9 10 8 65 -1 59 -4
-3 -8 0 -8 6 0 6 -5 8 -12 4 -7 -5 -8 -3 -4 5 5 7 14 10 22 7 7 -3 16 0 20 6
5 7 2 8 -6 3 -10 -6 -12 -4 -7 7 3 9 0 21 -6 27 -6 6 -7 11 -3 11 5 0 3 6 -3
13 -7 9 -8 24 -1 45 5 18 5 30 0 27 -5 -3 -11 -1 -14 4 -4 5 -2 12 4 16 6 4 7
12 3 18 -4 7 -9 21 -10 32 -2 16 -1 17 6 5 5 -8 7 -18 4 -24 -4 -5 -1 -6 7 -1
9 6 11 4 5 -5 -5 -9 -4 -11 4 -6 9 6 9 11 0 22 -6 8 -8 14 -4 14 4 0 2 6 -4
13 -7 9 -8 24 -1 45 5 18 5 30 0 27 -5 -3 -11 -1 -14 4 -4 5 -2 12 4 16 6 4 7
12 3 18 -4 7 -9 21 -10 32 -2 16 -1 17 6 5 5 -8 7 -18 4 -24 -4 -5 -1 -6 7 -1
9 6 11 4 5 -5 -5 -9 -4 -11 4 -6 9 6 9 11 0 22 -6 8 -8 14 -4 14 4 0 2 6 -4
13 -7 9 -8 24 -2 45 5 17 6 31 3 31 -19 -3 -23 2 -13 15 8 10 9 16 1 21 -14 9
-13 22 3 28 8 3 14 -1 14 -9 0 -7 -5 -10 -10 -7 -6 3 -7 1 -3 -5 4 -6 14 -8
23 -5 10 4 12 8 6 10 -6 2 -9 15 -7 29 3 17 0 24 -12 24 -10 0 -14 6 -11 14 3
7 0 19 -6 26 -9 10 -9 11 1 6 7 -5 12 -1 12 9 0 10 -5 13 -12 9 -9 -5 -9 -2 1
9 18 23 19 22 17 -12 -1 -17 2 -27 6 -24 5 2 8 14 6 25 -4 27 29 49 42 28 5
-8 10 -10 10 -5 0 14 -16 37 -25 37 -4 0 -11 -6 -16 -13 -10 -17 -49 -20 -42
-3 2 7 11 10 18 8 7 -3 18 4 25 15 7 14 7 21 0 21 -5 0 -10 10 -9 23 0 21 1
21 11 -3 6 -14 10 -32 9 -39z m-1543 6 c5 -22 -33 -18 -47 6 -11 17 -11 17 14
1 31 -20 33 -3 3 21 -23 17 -23 17 2 3 14 -9 26 -22 28 -31z m1502 23 c-6 -11
-13 -20 -16 -20 -2 0 0 9 6 20 6 11 13 20 16 20 2 0 0 -9 -6 -20z m531 7 c-1
-12 -15 -9 -19 4 -3 6 1 10 8 8 6 -3 11 -8 11 -12z m-2876 -17 c3 -5 1 -10 -4
-10 -6 0 -11 5 -11 10 0 6 2 10 4 10 3 0 8 -4 11 -10z m2715 4 c0 -8 -19 -13
-24 -6 -3 5 1 9 9 9 8 0 15 -2 15 -3z m204 -3 c3 -4 -4 -17 -16 -27 -12 -11
-18 -14 -15 -7 4 6 1 14 -5 17 -7 3 -4 4 7 3 12 -1 19 3 18 11 -3 14 3 16 11
3z m312 -38 c1 -7 -2 -13 -8 -13 -6 0 -8 7 -5 15 4 8 2 17 -3 20 -6 4 -10 12
-10 18 1 14 23 -22 26 -40z m-3050 17 c0 -12 -4 -16 -9 -11 -5 5 -6 14 -3 20
10 15 12 14 12 -9z m38 -10 c-6 -6 -10 -3 -10 10 0 13 4 16 10 10 7 -7 7 -13
0 -20z m283 17 c0 -8 -6 -14 -14 -14 -9 0 -10 4 -2 14 6 7 12 13 14 13 1 0 2
-6 2 -13z m-47 -7 c-12 -8 -13 -10 -1 -10 8 0 12 -2 9 -5 -7 -7 -38 5 -38 14
0 4 10 8 22 8 18 2 20 0 8 -7z m185 0 c3 -5 1 -10 -4 -10 -6 0 -11 5 -11 10 0
6 2 10 4 10 3 0 8 -4 11 -10z m175 -15 c0 4 6 2 13 -4 8 -6 18 -7 23 -3 4 4 2
-1 -5 -10 -7 -10 -10 -18 -6 -18 4 0 2 -6 -4 -13 -6 -8 -8 -17 -4 -20 3 -4 1
-7 -5 -7 -7 0 -12 -5 -12 -11 0 -8 4 -8 14 0 11 9 15 8 20 -5 3 -9 2 -22 -4
-28 -6 -9 -4 -20 7 -36 11 -15 12 -20 3 -15 -10 6 -12 4 -7 -8 3 -9 1 -19 -5
-23 -7 -5 -8 -2 -3 7 5 8 5 11 0 7 -4 -4 -15 -2 -24 5 -14 11 -15 10 -1 -8 19
-25 32 -35 40 -30 4 2 7 -2 7 -10 0 -8 -4 -12 -8 -9 -4 2 -11 -1 -15 -7 -11
-19 -14 -63 -3 -70 5 -3 11 -15 14 -27 3 -19 1 -21 -15 -12 -16 8 -18 8 -14
-5 4 -8 13 -15 22 -15 11 0 10 -5 -7 -19 -18 -15 -19 -20 -6 -24 8 -4 14 -1
12 5 -1 6 5 13 13 15 12 4 12 3 2 -5 -16 -11 -15 -21 1 -41 9 -12 9 -13 -1 -7
-9 5 -11 -2 -7 -28 5 -41 -6 -46 -27 -15 -14 21 -14 21 -14 1 0 -11 3 -19 7
-16 4 2 10 -3 13 -12 3 -8 10 -13 15 -9 5 3 12 1 16 -4 3 -6 -3 -8 -15 -6 -11
2 -19 -1 -17 -8 1 -7 -3 -11 -9 -10 -6 1 -11 -5 -11 -13 0 -12 2 -12 17 1 14
12 17 12 26 -3 14 -23 7 -42 -16 -42 -10 0 -21 -4 -24 -9 -4 -5 2 -7 12 -4 10
2 25 -3 33 -13 12 -15 12 -17 0 -9 -11 6 -13 4 -8 -8 3 -9 1 -19 -5 -23 -6 -4
-8 -3 -5 3 3 5 0 10 -7 10 -8 0 -12 -6 -9 -14 5 -12 16 -17 34 -15 3 1 6 -5 6
-13 0 -8 -4 -12 -8 -9 -4 2 -13 -5 -19 -16 -6 -12 -7 -20 -1 -20 5 0 12 6 14
13 3 6 4 -1 2 -18 -1 -16 2 -36 7 -42 7 -9 7 -13 -2 -13 -7 0 -10 -6 -7 -13 3
-8 -1 -14 -8 -14 -11 0 -11 5 -4 20 6 10 8 22 4 25 -3 3 -8 -4 -12 -16 -3 -12
-10 -22 -17 -22 -6 -1 -1 -6 12 -13 23 -13 23 -13 3 -36 -11 -13 -17 -29 -13
-39 5 -14 4 -15 -10 -2 -9 8 -12 17 -7 18 5 2 9 8 9 13 0 6 -4 8 -9 5 -10 -7
-24 22 -16 34 3 5 -3 7 -15 5 -11 -2 -19 -1 -19 3 4 23 -4 32 -26 30 -16 -2
-24 -8 -22 -17 1 -9 -6 -16 -16 -17 -12 -1 -13 0 -2 3 11 3 13 9 5 24 -6 11
-7 19 -3 18 21 -4 23 3 6 19 -10 9 -13 13 -6 8 19 -12 16 4 -4 27 -10 11 -12
17 -5 13 9 -6 11 -1 8 18 -3 14 -1 28 4 31 5 3 7 -3 5 -14 -3 -14 1 -18 16
-14 11 3 21 9 24 13 3 5 -4 6 -15 3 -12 -3 -20 -2 -19 3 4 23 -2 33 -18 27
-15 -5 -14 -3 2 10 11 8 23 13 27 11 4 -2 9 0 12 4 3 5 -6 9 -21 8 -16 -1 -28
5 -30 14 -4 13 -3 13 6 0 9 -12 11 -9 12 15 1 17 1 36 0 44 -2 7 2 11 7 7 5
-3 9 2 9 10 0 9 -6 13 -16 9 -8 -3 -12 -3 -8 1 4 4 2 12 -3 19 -7 8 -5 12 5
12 8 0 12 -4 9 -9 -3 -4 -1 -8 4 -8 15 0 9 69 -6 75 -10 4 -10 9 -2 25 11 20
30 19 30 -1 0 -6 -4 -8 -9 -4 -5 3 -12 1 -15 -4 -7 -10 20 -9 30 2 10 10 -17
38 -34 35 -8 -2 -17 4 -19 12 -4 13 -3 13 6 0 9 -12 11 -9 12 15 1 17 1 36 0
44 -2 7 2 11 7 7 5 -3 9 2 9 10 0 9 -6 13 -16 9 -8 -3 -12 -3 -8 1 4 4 2 13
-4 20 -7 9 -6 19 3 34 11 17 11 22 -2 30 -8 5 -10 10 -4 10 5 0 14 -4 20 -10
6 -6 15 -5 24 1 13 9 13 10 -1 6 -11 -4 -20 3 -28 19 -6 13 -7 23 -3 22 13 -3
42 14 42 25 0 7 -4 7 -12 -1 -20 -20 -32 -13 -13 8 10 11 15 20 10 20 -4 0 -2
7 5 15 16 20 3 40 -16 24 -8 -6 -16 -10 -19 -8 -2 3 4 10 15 17 15 9 22 9 35
-4 8 -8 15 -12 15 -7 0 5 -6 15 -12 22 -11 10 -10 12 2 9 8 -2 17 -6 20 -10 3
-4 11 2 19 13 7 12 8 18 2 14 -6 -3 -11 -1 -11 6 0 8 -5 7 -17 -2 -16 -13 -17
-12 -5 3 14 18 28 16 72 -10 22 -14 22 -12 -5 15 -16 16 -34 27 -39 25 -5 -3
-6 0 -2 7 6 9 13 8 27 -5 10 -9 19 -14 19 -9z m325 -3 c1 -11 -2 -19 -7 -16
-4 3 -8 0 -8 -7 0 -7 -3 -10 -6 -7 -3 4 -1 15 5 26 7 14 7 22 1 25 -6 3 -5 4
1 3 7 -1 13 -12 14 -24z m1225 18 c0 -5 -2 -10 -4 -10 -3 0 -8 5 -11 10 -3 6
-1 10 4 10 6 0 11 -4 11 -10z m180 0 c0 -5 -2 -10 -4 -10 -3 0 -8 5 -11 10 -3
6 -1 10 4 10 6 0 11 -4 11 -10z m630 0 c8 -5 11 -10 5 -10 -5 0 -17 5 -25 10
-8 5 -10 10 -5 10 6 0 17 -5 25 -10z m-2475 -41 c-1 -12 -10 -26 -21 -31 -18
-9 -18 -8 -2 5 10 8 15 17 12 20 -3 3 -3 10 1 16 9 16 12 13 10 -10z m1805 17
c0 -2 -8 -10 -17 -17 -16 -13 -17 -12 -4 4 13 16 21 21 21 13z m-1645 -56 c3
-6 -1 -7 -9 -4 -18 7 -21 14 -7 14 6 0 13 -4 16 -10z m-154 -33 c-6 -8 -9 -16
-8 -18 2 -2 -5 -12 -15 -21 -10 -10 -18 -16 -18 -13 0 9 25 50 35 57 16 12 19
9 6 -5z m1649 -31 c0 -2 -7 -7 -16 -10 -8 -3 -12 -2 -9 4 6 10 25 14 25 6z
m915 -16 c3 -6 -1 -7 -9 -4 -18 7 -21 14 -7 14 6 0 13 -4 16 -10z m-11 -26 c3
-8 2 -12 -4 -9 -6 3 -10 10 -10 16 0 14 7 11 14 -7z m6 -74 c0 -5 -5 -10 -11
-10 -5 0 -7 5 -4 10 3 6 8 10 11 10 2 0 4 -4 4 -10z m-2413 -17 c-4 -3 -2 -12
3 -18 7 -9 6 -14 -3 -18 -9 -3 -13 2 -11 16 3 28 3 27 11 27 3 0 3 -3 0 -7z
m-930 -60 c-4 -3 -1 -13 6 -22 11 -14 10 -14 -5 -2 -16 12 -16 31 -1 31 4 0 3
-3 0 -7z m3343 -3 c0 -5 -5 -10 -11 -10 -5 0 -7 5 -4 10 3 6 8 10 11 10 2 0 4
-4 4 -10z m-2576 -161 c-3 -5 -11 -9 -17 -8 -8 0 -8 2 1 6 10 4 10 8 0 21 -12
15 -11 16 4 3 10 -7 15 -17 12 -22z m-1199 -68 c-3 -6 -11 -11 -16 -11 -5 0
-4 6 3 14 14 16 24 13 13 -3z m435 9 c0 -5 -2 -10 -4 -10 -3 0 -8 5 -11 10 -3
6 -1 10 4 10 6 0 11 -4 11 -10z m4 -38 c3 -5 -1 -9 -9 -9 -8 0 -15 4 -15 9 0
4 4 8 9 8 6 0 12 -4 15 -8z m2418 -69 c-8 -11 -16 -4 -18 17 -4 23 -3 24 8 5
6 -11 11 -21 10 -22z m1364 -8 c-1 -8 -8 -21 -15 -28 -10 -10 -12 -8 -9 8 1
11 8 23 13 27 13 10 14 10 11 -7z m-4066 -67 c0 -4 -9 -6 -20 -5 -23 2 -24 3
-7 21 11 13 26 4 27 -16z m3634 23 c-8 -8 -34 -10 -38 -2 -3 4 6 7 19 7 14 0
22 -2 19 -5z m-3345 -38 c-7 -10 -14 -19 -15 -21 -1 -2 -4 4 -8 13 -3 9 -2 13
3 10 5 -3 12 -1 16 5 3 5 9 10 12 10 3 0 -1 -8 -8 -17z m-126 -13 c-3 -12 -8
-19 -11 -16 -5 6 5 36 12 36 2 0 2 -9 -1 -20z m3611 -12 c-9 -14 -23 2 -17 18
4 12 8 13 14 3 4 -7 5 -17 3 -21z m-3580 13 c3 -5 -1 -11 -9 -14 -9 -4 -12 -1
-8 9 6 16 10 17 17 5z m2659 -34 c-17 -20 -17 -20 2 -14 18 7 19 6 3 -6 -10
-8 -16 -16 -14 -18 2 -2 -2 -10 -10 -17 -17 -15 -18 -8 -4 19 8 14 7 19 -2 19
-9 0 -9 3 2 10 8 5 11 10 6 10 -5 0 -3 7 4 15 7 8 17 12 22 9 5 -3 1 -15 -9
-27z m-1776 -72 c0 -8 -4 -15 -9 -15 -10 0 -11 14 -1 23 9 10 10 9 10 -8z
m1766 -19 c4 -10 1 -13 -8 -9 -8 3 -12 9 -9 14 7 12 11 11 17 -5z m-1640 -30
c4 -10 1 -13 -9 -9 -7 3 -14 9 -14 14 0 14 17 10 23 -5z m-131 -28 c-14 -14
-44 -20 -36 -7 3 5 9 7 14 4 5 -3 11 -1 15 5 3 5 9 10 13 10 3 0 1 -5 -6 -12z
m121 -8 c3 -11 1 -18 -4 -14 -5 3 -9 12 -9 20 0 20 7 17 13 -6z m1664 -5 c0
-8 -4 -12 -9 -9 -4 3 -8 9 -8 15 0 5 4 9 8 9 5 0 9 -7 9 -15z m-1682 -15 c3
-5 1 -10 -4 -10 -6 0 -11 5 -11 10 0 6 2 10 4 10 3 0 8 -4 11 -10z m1530 -20
c3 -6 -1 -7 -9 -4 -18 7 -21 14 -7 14 6 0 13 -4 16 -10z m-2402 -51 c-8 -8
-13 -7 -18 2 -5 8 -4 10 3 5 7 -4 12 -2 12 5 0 7 3 9 7 6 4 -4 2 -12 -4 -18z
m3314 -35 c-9 -9 -28 6 -21 18 4 6 10 6 17 -1 6 -6 8 -13 4 -17z m-3317 7 c0
-6 -4 -12 -8 -15 -5 -3 -9 1 -9 9 0 8 4 15 9 15 4 0 8 -4 8 -9z m2414 -39 c3
-5 -1 -9 -9 -9 -8 0 -12 4 -9 9 3 4 7 8 9 8 2 0 6 -4 9 -8z m-2420 -36 c-3 -9
-10 -13 -16 -10 -5 3 -4 12 3 20 15 18 22 13 13 -10z m1661 -4 c1 -4 5 -18 9
-31 6 -18 10 -21 17 -10 8 12 11 12 19 -1 9 -13 10 -12 8 4 -2 12 4 20 15 21
10 2 14 -1 10 -8 -4 -6 0 -8 10 -4 11 4 14 2 11 -8 -4 -9 4 -19 20 -26 14 -7
23 -16 20 -20 -5 -8 10 -13 29 -10 5 1 6 -3 2 -9 -4 -7 -12 -7 -26 0 -12 7
-19 7 -19 1 0 -5 9 -13 20 -16 11 -3 20 -11 20 -16 0 -6 -4 -7 -10 -4 -5 3
-10 2 -10 -4 0 -5 5 -11 11 -13 17 -6 19 -58 2 -58 -8 0 -11 4 -8 10 3 6 -1 7
-10 4 -14 -6 -13 -8 5 -21 11 -8 26 -11 33 -7 8 5 7 2 -2 -10 -11 -13 -16 -14
-22 -4 -6 9 -9 7 -9 -7 0 -16 -2 -17 -10 -5 -6 9 -5 17 3 23 7 4 -8 5 -31 2
-35 -5 -42 -3 -36 7 6 10 4 10 -9 -1 -14 -11 -20 -11 -34 0 -12 10 -15 11 -9
1 6 -10 1 -11 -20 -6 -19 5 -25 4 -20 -4 9 -15 -26 -3 -36 12 -5 8 -8 7 -8 -1
0 -8 -14 -11 -41 -9 -26 2 -42 -1 -46 -10 -7 -19 -39 -13 -40 8 -1 10 3 20 8
24 6 4 6 11 -2 20 -6 8 -8 14 -3 15 5 1 18 2 29 3 11 0 19 7 17 15 -1 7 3 21
10 30 12 14 11 15 -4 2 -14 -10 -18 -10 -18 -1 0 7 -7 10 -17 6 -17 -6 -17 -5
-1 7 10 8 14 18 10 22 -4 5 -1 5 6 1 9 -6 12 -2 10 10 -2 10 3 19 10 20 25 3
27 5 12 14 -8 5 -10 10 -4 10 6 0 18 -8 25 -17 12 -14 12 -16 0 -8 -10 6 -12
4 -6 -5 5 -8 4 -11 -2 -7 -6 4 -18 -6 -27 -21 l-17 -27 20 23 c11 13 22 22 25
20 2 -2 16 7 30 20 30 26 40 28 33 7 -4 -8 -1 -17 6 -21 7 -4 9 -4 5 1 -4 4 0
22 9 39 10 17 16 36 14 41 -1 6 1 6 6 2 4 -5 8 -12 8 -15z m34 -18 c-14 -13
-16 -13 -16 0 0 8 5 12 10 9 7 -4 8 1 3 13 -6 15 -5 17 5 6 11 -10 10 -15 -2
-28z m-69 11 c-5 -7 -6 -16 -2 -20 4 -5 1 -5 -6 -1 -8 5 -21 1 -31 -8 -16 -15
-19 -15 -24 -2 -4 11 -1 13 10 9 11 -4 14 -3 9 6 -4 6 -4 11 1 10 19 -3 34 2
29 9 -3 5 1 9 9 9 10 0 12 -4 5 -12z m800 9 c0 -8 -19 -13 -24 -6 -3 5 1 9 9
9 8 0 15 -2 15 -3z m0 -27 c0 -2 -10 -12 -22 -23 l-23 -19 19 23 c18 21 26 27
26 19z m-1540 -31 c0 -3 -4 -8 -10 -11 -5 -3 -10 -1 -10 4 0 6 5 11 10 11 6 0
10 -2 10 -4z m-870 -32 c0 -8 -19 -13 -24 -6 -3 5 1 9 9 9 8 0 15 -2 15 -3z
m3314 -15 c-6 -11 -24 -2 -24 11 0 5 7 7 15 4 8 -4 12 -10 9 -15z m-1820 -44
c6 -16 -3 -19 -28 -9 -9 3 -13 10 -10 15 8 14 31 11 38 -6z m-733 -49 c5 3 8
0 7 -8 -2 -7 3 -12 9 -11 14 3 12 -31 -2 -44 -4 -5 -5 -3 -2 3 3 6 0 11 -8 11
-8 0 -11 -5 -8 -10 3 -6 2 -7 -4 -4 -5 3 -10 0 -10 -8 0 -11 4 -12 14 -4 10 9
13 8 13 -1 0 -6 -10 -20 -22 -30 -20 -16 -21 -21 -9 -32 9 -9 12 -9 7 -1 -4 7
2 20 14 30 11 10 20 23 20 31 0 7 5 10 10 7 6 -4 8 -10 6 -14 -3 -4 4 -8 15
-8 15 -1 18 3 15 23 -3 14 -1 22 5 19 5 -4 7 -11 4 -16 -4 -5 -1 -9 5 -9 8 0
8 -6 0 -22 -10 -21 -10 -22 4 -5 8 11 13 24 10 31 -3 7 5 12 18 13 13 0 17 -1
11 -4 -7 -3 -13 -13 -13 -23 0 -10 -4 -22 -10 -25 -16 -10 -12 -23 10 -30 12
-4 19 -14 18 -23 -2 -9 2 -16 9 -15 7 2 10 -4 6 -13 -4 -11 -8 -12 -13 -4 -5
9 -9 9 -14 1 -4 -6 0 -18 8 -27 19 -18 19 -21 4 -30 -7 -5 -8 -3 -3 6 6 10 4
12 -8 7 -12 -4 -14 -2 -10 11 6 15 5 16 -12 2 -10 -8 -16 -10 -12 -4 4 7 -5
17 -23 24 -17 7 -30 16 -30 21 0 5 -10 9 -21 9 -19 0 -20 -2 -8 -17 13 -15 12
-15 -8 -4 -13 6 -27 21 -33 34 -10 20 -10 20 3 4 11 -13 20 -15 38 -8 23 9 23
10 3 10 -32 1 -48 25 -34 50 8 16 8 21 -2 22 -10 0 -10 2 0 6 10 4 9 10 -5 25
-13 15 -14 19 -3 16 9 -2 14 3 12 12 -3 11 2 10 17 -4 12 -11 21 -14 21 -9 0
6 -7 16 -15 23 -8 7 -15 18 -14 24 0 7 2 6 6 -2 2 -6 9 -10 14 -6z m-761 0 c0
-3 -4 -8 -10 -11 -5 -3 -10 -1 -10 4 0 6 5 11 10 11 6 0 10 -2 10 -4z m884 -4
c3 -5 -1 -9 -9 -9 -8 0 -12 4 -9 9 3 4 7 8 9 8 2 0 6 -4 9 -8z m1514 -18 c-12
-12 -17 -13 -23 -3 -5 8 -4 10 4 5 6 -4 14 0 17 9 4 9 9 13 12 10 3 -3 -1 -13
-10 -21z m942 -1 c0 -3 -7 -3 -15 1 -8 3 -15 0 -15 -6 0 -6 -3 -9 -6 -5 -11
10 6 26 21 20 8 -3 15 -7 15 -10z m-3395 -3 c3 -5 1 -10 -4 -10 -6 0 -11 5
-11 10 0 6 2 10 4 10 3 0 8 -4 11 -10z m2542 -5 c-4 -8 -2 -17 3 -20 9 -6 14
8 11 28 -1 4 8 3 19 -3 11 -6 18 -15 15 -21 -4 -5 -1 -9 4 -9 6 0 11 8 12 18
0 12 2 13 6 3 8 -19 -26 -44 -43 -31 -8 8 -14 6 -18 -6 -4 -9 -4 -19 -1 -22 3
-3 5 0 5 6 0 7 5 12 11 12 5 0 7 -5 3 -12 -5 -7 -3 -8 7 -2 16 10 44 15 35 7
-3 -4 0 -13 7 -22 11 -14 10 -14 -5 -2 -23 17 -23 3 -1 -29 16 -24 16 -24 0
-11 -16 13 -18 12 -13 -13 3 -14 1 -24 -4 -21 -5 3 -11 1 -15 -5 -6 -9 7 -14
28 -11 4 0 7 -3 7 -9 0 -16 -16 -12 -41 11 -13 11 -18 17 -10 13 9 -4 12 -3 7
4 -9 14 -66 -5 -66 -22 0 -7 -10 -21 -22 -32 -20 -17 -21 -17 -9 -1 13 16 12
18 -12 13 -15 -2 -30 0 -33 6 -4 6 -2 8 3 5 6 -4 17 1 24 10 12 14 11 15 -11
9 -17 -5 -21 -4 -11 2 9 7 10 11 2 17 -9 5 -9 10 -1 20 6 8 12 27 12 44 1 18
7 32 15 32 7 1 18 2 23 3 6 0 14 7 19 14 7 11 9 10 14 -3 5 -10 3 -14 -5 -9
-7 4 -8 3 -4 -4 4 -7 -1 -10 -14 -7 -11 2 -18 0 -15 -5 3 -6 -2 -7 -12 -4 -14
4 -15 3 -4 -4 9 -7 10 -12 2 -16 -15 -10 -14 -23 3 -29 9 -4 13 0 11 11 -3 21
16 47 24 34 3 -6 15 2 25 16 11 14 15 22 9 19 -7 -4 -10 0 -8 10 2 10 4 21 4
26 1 4 4 7 7 7 3 0 4 -7 1 -15z m-1675 -25 c3 -22 2 -27 -8 -19 -6 5 -10 19
-7 29 7 27 10 25 15 -10z m1612 12 c3 -5 -1 -9 -9 -9 -8 0 -12 4 -9 9 3 4 7 8
9 8 2 0 6 -4 9 -8z m896 -12 c-6 -11 -13 -20 -16 -20 -2 0 0 9 6 20 6 11 13
20 16 20 2 0 0 -9 -6 -20z m-3353 -5 c0 -8 -4 -12 -9 -9 -5 3 -6 10 -3 15 9
13 12 11 12 -6z m1503 -9 c0 -2 -8 -10 -17 -17 -16 -13 -17 -12 -4 4 13 16 21
21 21 13z m-578 -43 c-6 -3 -10 -9 -6 -14 6 -10 -9 -12 -19 -2 -4 3 1 12 11
19 9 7 19 10 22 7 3 -3 -1 -8 -8 -10z m-908 -11 c3 -5 -1 -9 -9 -9 -8 0 -12 4
-9 9 3 4 7 8 9 8 2 0 6 -4 9 -8z m1826 -2 c0 -5 -2 -10 -4 -10 -3 0 -8 5 -11
10 -3 6 -1 10 4 10 6 0 11 -4 11 -10z m680 -64 c0 -2 -7 -7 -16 -10 -8 -3 -12
-2 -9 4 6 10 25 14 25 6z m-1745 -24 c-3 -3 -11 0 -18 7 -9 10 -8 11 6 5 10
-3 15 -9 12 -12z m1076 1 c13 -17 13 -17 -6 -3 -11 8 -22 16 -24 17 -2 2 0 3
6 3 6 0 17 -8 24 -17z m709 -13 c0 -5 -5 -10 -11 -10 -5 0 -7 5 -4 10 3 6 8
10 11 10 2 0 4 -4 4 -10z m793 -15 c-3 -9 -8 -14 -10 -11 -3 3 -2 9 2 15 9 16
15 13 8 -4z m-3465 -4 c11 -7 10 -9 -3 -14 -9 -4 -14 -3 -10 2 3 5 -1 12 -7
14 -7 3 -8 6 -3 6 6 0 16 -3 23 -8z m125 -41 c-7 -27 -13 -25 -11 4 1 14 5 23
9 20 4 -2 5 -13 2 -24z m2434 24 c-3 -3 -12 -4 -19 -1 -8 3 -5 6 6 6 11 1 17
-2 13 -5z m-1534 -19 c-3 -9 -8 -14 -10 -11 -3 3 -2 9 2 15 9 16 15 13 8 -4z
m1652 -5 c10 -11 16 -20 13 -20 -3 0 -13 9 -23 20 -10 11 -16 20 -13 20 3 0
13 -9 23 -20z m-129 -6 c-1 -8 -6 -17 -12 -21 -5 -4 -6 -4 -2 1 4 5 3 14 -2
21 -7 8 -5 12 4 12 8 0 13 -6 12 -13z m-1506 -7 c0 -2 -10 -12 -22 -23 l-23
-19 19 23 c18 21 26 27 26 19z m2435 -6 c-9 -8 -36 -10 -30 -2 2 4 11 8 20 8
8 0 13 -3 10 -6z m-3358 -33 c-3 -8 -6 -5 -6 6 -1 11 2 17 5 13 3 -3 4 -12 1
-19z m1829 5 c-3 -20 -22 -28 -31 -14 -4 7 0 8 10 5 9 -4 15 -3 14 2 -2 13 0
24 5 24 2 0 3 -8 2 -17z m-316 -48 c-9 -11 -9 -15 -1 -15 6 0 11 -5 11 -11 0
-5 -4 -7 -10 -4 -6 4 -7 -1 -3 -11 5 -14 8 -13 18 6 7 13 10 32 8 44 -4 18 -2
17 11 -4 10 -18 11 -27 3 -32 -9 -6 -9 -8 0 -8 6 0 15 5 18 10 9 15 25 12 25
-4 0 -24 13 -25 50 -6 28 15 30 18 13 17 -13 -1 -23 -4 -23 -8 0 -4 -7 -9 -15
-13 -9 -3 -15 0 -15 10 0 8 4 13 9 9 5 -3 12 -1 15 3 3 5 -10 8 -29 7 -19 -1
-33 1 -30 3 3 3 -1 12 -8 21 -10 14 -10 14 4 3 28 -21 59 -23 60 -4 0 12 3 11
9 -5 5 -13 15 -21 22 -18 16 6 31 -4 47 -30 11 -18 11 -18 5 5 -6 22 -5 23 10
11 13 -11 19 -11 32 0 13 10 17 10 24 -1 5 -8 6 -18 4 -22 -3 -4 0 -8 5 -8 15
0 14 12 -4 37 -13 18 -13 22 0 33 11 9 15 9 15 1 0 -6 -6 -11 -12 -11 -9 0 -8
-4 2 -10 18 -12 31 -13 28 -2 -2 4 0 8 5 10 16 5 27 2 27 -9 0 -5 -4 -8 -9 -5
-5 3 -14 -1 -20 -8 -9 -10 -9 -16 -1 -21 8 -5 5 -11 -7 -21 -10 -7 -13 -14 -7
-14 6 0 17 7 25 16 10 13 10 17 -2 25 -8 5 -9 9 -4 9 17 0 31 -14 30 -30 -1
-8 -6 -14 -13 -13 -17 4 -15 -12 4 -28 14 -11 14 -13 -1 -21 -8 -5 -12 -14 -9
-20 4 -6 3 -8 -4 -5 -5 4 -9 18 -7 32 1 14 -2 25 -6 25 -5 0 -9 -8 -10 -17 0
-15 -2 -15 -9 2 -10 26 -30 42 -52 42 -15 0 -16 -3 -6 -16 20 -26 21 -27 15
-8 -8 21 6 23 22 3 20 -24 -21 -26 -48 -2 -23 20 -23 20 -13 1 9 -17 7 -20
-13 -20 -14 0 -20 4 -16 10 9 13 8 45 -1 45 -5 0 -12 0 -18 0 -5 0 -10 -5 -10
-11 0 -8 4 -8 14 1 12 9 15 8 13 -9 -1 -11 -8 -23 -17 -27 -27 -12 -82 -10
-87 3 -3 7 -9 10 -14 7 -5 -3 -7 -9 -5 -13 3 -4 -12 -6 -32 -5 -20 1 -44 -4
-52 -10 -12 -9 -13 -8 -4 4 7 8 11 27 9 43 -2 15 1 25 5 22 5 -3 7 -12 3 -20
-3 -8 -1 -15 5 -15 6 0 16 -2 24 -5 7 -3 22 2 33 11 11 8 15 13 8 10 -6 -4
-14 0 -16 6 -3 8 -6 6 -6 -4 -1 -10 -4 -18 -8 -18 -11 0 -40 20 -29 20 4 0 1
12 -9 26 -10 15 -12 23 -4 19 9 -6 11 -3 6 8 -3 9 -1 19 5 23 7 4 8 3 4 -4 -4
-7 -2 -12 3 -12 6 0 11 8 12 18 0 11 2 12 6 4 3 -7 -1 -19 -7 -27z m185 15
c-3 -5 -12 -10 -18 -10 -7 0 -6 4 3 10 19 12 23 12 15 0z m50 0 c3 -5 1 -10
-4 -10 -6 0 -11 5 -11 10 0 6 2 10 4 10 3 0 8 -4 11 -10z m695 6 c0 -2 -8 -10
-17 -17 -16 -13 -17 -12 -4 4 13 16 21 21 21 13z m-715 -26 c4 -6 11 -7 17 -4
7 4 8 2 4 -4 -5 -8 -13 -9 -25 -2 -10 5 -22 6 -26 2 -5 -4 -5 -1 -1 6 9 15 23
16 31 2z m1600 1 c3 -5 2 -12 -3 -15 -5 -3 -9 1 -9 9 0 17 3 19 12 6z m1 -56
c1 -8 -1 -15 -6 -15 -10 0 -20 26 -13 34 8 8 16 -1 19 -19z m-896 -19 c0 -3
-4 -8 -10 -11 -5 -3 -10 -1 -10 4 0 6 5 11 10 11 6 0 10 -2 10 -4z m896 -18
c4 -7 3 -8 -4 -4 -7 4 -12 2 -12 -5 0 -7 -3 -10 -6 -6 -6 5 3 27 11 27 2 0 7
-5 11 -12z m-1810 -30 c3 -4 -1 -5 -10 -4 -8 1 -18 5 -22 8 -3 4 1 5 10 4 8
-1 18 -5 22 -8z m914 -32 c0 -2 -7 -7 -16 -10 -8 -3 -12 -2 -9 4 6 10 25 14
25 6z m130 -21 c-7 -8 -17 -15 -23 -15 -6 0 -2 7 9 15 25 19 30 19 14 0z
m-1776 -11 c3 -8 2 -12 -4 -9 -6 3 -10 10 -10 16 0 14 7 11 14 -7z m-14 -29
c0 -7 7 -15 15 -19 8 -3 15 0 15 6 0 6 3 8 6 5 4 -4 1 -13 -6 -22 -15 -18 0
-20 20 -2 12 10 12 9 1 -6 -9 -12 -21 -15 -35 -11 -18 6 -19 5 -8 -9 8 -9 21
-13 30 -10 11 3 13 2 6 -4 -6 -4 -10 -16 -8 -26 1 -9 -2 -15 -7 -11 -5 3 -6
10 -3 16 8 13 -10 4 -41 -21 -12 -9 -15 -10 -8 -1 10 11 10 17 0 29 -11 14
-10 14 6 2 23 -18 22 -2 -3 24 -14 15 -16 24 -9 35 9 13 10 12 5 -2 -3 -10 -1
-20 4 -23 6 -4 10 -1 10 4 0 6 8 11 18 11 16 1 16 1 0 11 -10 5 -18 17 -18 25
0 9 -5 12 -12 8 -7 -4 -8 -3 -4 5 9 14 26 5 26 -14z m740 11 c0 -2 -8 -10 -17
-17 -16 -13 -17 -12 -4 4 13 16 21 21 21 13z m1075 -8 c5 4 5 2 1 -5 -4 -7
-14 -9 -24 -6 -15 6 -16 5 -2 -12 8 -10 10 -16 3 -12 -8 5 -11 0 -10 -13 1
-12 7 -18 14 -16 7 3 10 -1 6 -9 -3 -8 -9 -12 -14 -9 -5 3 -9 0 -9 -5 0 -11
13 -15 35 -12 6 1 1 -6 -9 -14 -11 -8 -16 -15 -12 -15 5 0 3 -7 -4 -15 -15
-18 0 -20 20 -2 8 6 6 2 -4 -10 -11 -13 -15 -23 -11 -23 5 0 4 -5 -3 -12 -19
-19 -14 -32 6 -17 14 11 15 11 5 -1 -9 -9 -9 -17 -2 -26 7 -8 6 -14 -2 -20 -8
-4 -9 -3 -5 4 4 7 2 12 -3 12 -6 0 -11 -6 -11 -14 0 -8 -7 -17 -15 -20 -14 -5
-14 -4 0 16 18 26 20 47 3 30 -7 -7 -17 -12 -22 -12 -6 0 -3 5 7 11 12 7 15
15 8 27 -4 9 -6 23 -3 31 3 9 0 11 -9 6 -8 -5 -11 -5 -7 0 4 4 3 14 -2 21 -8
8 -7 16 2 25 15 16 17 67 4 89 -5 8 -6 12 -2 8 10 -9 36 14 29 25 -3 5 4 4 14
-2 11 -6 24 -7 28 -3z m-165 -2 c0 -2 -8 -10 -17 -17 -16 -13 -17 -12 -4 4 13
16 21 21 21 13z m88 -67 c0 -17 -1 -29 -4 -27 -7 8 -12 68 -4 63 4 -2 7 -18 8
-36z m818 29 c4 -7 3 -8 -4 -4 -7 4 -12 2 -12 -5 0 -7 -3 -10 -6 -6 -6 5 3 27
11 27 2 0 7 -5 11 -12z m-919 -37 c0 -11 -5 -18 -9 -15 -4 3 -5 11 -1 19 7 21
12 19 10 -4z m-1487 -24 c0 -2 -10 -12 -22 -23 l-23 -19 19 23 c18 21 26 27
26 19z m925 -6 c-9 -8 -36 -10 -30 -2 2 4 11 8 20 8 8 0 13 -3 10 -6z m-1055
-11 c0 -5 -6 -10 -12 -11 -10 0 -10 -2 0 -6 6 -2 9 -10 5 -16 -4 -7 0 -8 13
-4 18 7 18 7 0 -8 -17 -13 -15 -19 5 -17 3 1 4 -11 1 -26 l-6 -27 -6 25 c-4
15 -12 24 -22 22 -8 -1 -21 6 -29 15 -11 15 -11 16 1 6 24 -22 34 -14 14 9
-17 21 -17 21 -1 8 16 -12 19 -12 17 1 -4 25 0 39 10 39 6 0 10 -4 10 -10z
m1640 -10 c0 -5 -5 -10 -11 -10 -5 0 -7 5 -4 10 3 6 8 10 11 10 2 0 4 -4 4
-10z m-586 -38 c3 -5 -1 -9 -9 -9 -8 0 -12 4 -9 9 3 4 7 8 9 8 2 0 6 -4 9 -8z
m583 -9 c0 -9 -4 -10 -14 -2 -7 6 -13 12 -13 14 0 1 6 2 13 2 8 0 14 -6 14
-14z m-1667 -33 c0 -5 -8 -10 -17 -10 -15 0 -16 2 -3 10 19 12 20 12 20 0z
m160 6 c0 -2 -8 -10 -17 -17 -16 -13 -17 -12 -4 4 13 16 21 21 21 13z m-137
-40 c7 3 4 -1 -5 -9 -10 -8 -14 -18 -10 -22 4 -5 2 -5 -5 -2 -6 4 -9 17 -5 29
3 12 7 17 10 10 2 -7 9 -10 15 -6z m917 -10 c0 -1 -7 -3 -15 -3 -8 0 -15 5
-15 10 0 5 -7 4 -15 -3 -9 -8 -15 -8 -15 -2 0 15 22 21 43 10 9 -5 17 -10 17
-12z m40 0 c0 -10 -30 0 -34 11 -4 11 -1 11 14 3 11 -6 20 -12 20 -14z m-833
-1 c0 -8 -4 -12 -9 -9 -5 3 -6 10 -3 15 9 13 12 11 12 -6z m935 3 c-16 -16
-15 -31 1 -22 9 6 9 4 -1 -8 -10 -13 -10 -17 0 -21 7 -2 1 -4 -14 -3 -22 1
-24 4 -17 19 5 9 6 17 2 17 -4 0 2 7 13 15 23 18 32 19 16 3z m566 -43 c-3 -3
-9 2 -12 12 -6 14 -5 15 5 6 7 -7 10 -15 7 -18z m-1621 0 c0 -8 -4 -15 -9 -15
-10 0 -11 14 -1 23 9 10 10 9 10 -8z m1792 -13 c-5 -2 -17 2 -26 9 -14 12 -15
11 -9 -11 6 -21 5 -22 -4 -7 -16 25 -4 37 25 24 13 -7 20 -14 14 -15z m-1799
-22 c8 -5 11 -10 5 -10 -5 0 -17 5 -25 10 -8 5 -10 10 -5 10 6 0 17 -5 25 -10z
m1065 0 c-3 -5 -1 -10 6 -10 7 0 10 -2 7 -5 -8 -9 -38 6 -32 16 3 5 10 9 15 9
6 0 7 -4 4 -10z m-922 -15 c-3 -9 -8 -14 -10 -11 -3 3 -2 9 2 15 9 16 15 13 8
-4z m-161 -15 c-2 -8 3 -10 15 -6 14 6 15 4 6 -5 -13 -13 -36 -2 -27 13 5 8 1
9 -10 5 -11 -4 -15 -3 -11 4 9 14 31 5 27 -11z m1796 6 c-10 -7 -17 -15 -15
-17 1 -2 0 -3 -2 -1 -14 8 -6 28 13 29 19 2 20 1 4 -11z m-2508 -20 c0 -2 -8
-10 -17 -17 -16 -13 -17 -12 -4 4 13 16 21 21 21 13z m340 -41 c0 -5 -5 -3
-10 5 -8 12 -10 12 -10 1 0 -8 -2 -12 -5 -9 -3 3 -2 13 1 22 5 14 9 15 15 4 5
-7 9 -17 9 -23z m221 8 c-12 -20 -14 -14 -5 12 4 9 9 14 11 11 3 -2 0 -13 -6
-23z m65 5 c0 -16 -2 -16 -18 -1 -18 16 -24 9 -19 -20 1 -5 -3 -6 -9 -2 -15 9
5 41 27 41 11 0 19 -7 19 -18z m274 7 c0 -2 -9 -3 -19 -2 -11 0 -18 5 -15 9 4
6 34 0 34 -7z m1055 -9 c0 -15 -4 -21 -9 -16 -5 5 -6 16 -3 24 9 22 12 20 12
-8z m140 6 c-3 -3 -11 0 -18 7 -9 10 -8 11 6 5 10 -3 15 -9 12 -12z m180 9 c3
-5 2 -12 -3 -15 -5 -3 -9 1 -9 9 0 17 3 19 12 6z m909 -16 c-16 -24 -18 -24
-35 -10 -14 13 -22 14 -41 5 -22 -11 -22 -10 -4 4 25 20 31 20 50 1 13 -13 15
-13 21 5 3 11 11 20 16 20 5 0 2 -11 -7 -25z m-2123 -2 c13 -16 12 -17 -3 -4
-17 13 -22 21 -14 21 2 0 10 -8 17 -17z m174 5 c5 4 5 1 1 -6 -6 -10 -11 -10
-22 -1 -8 6 -14 14 -14 16 0 3 6 0 13 -6 8 -6 18 -7 22 -3z m1695 -12 c0 -10
-30 0 -34 11 -4 11 -1 11 14 3 11 -6 20 -12 20 -14z m54 18 c26 -10 18 -20
-14 -20 -31 0 -40 10 -17 19 6 3 13 6 14 6 1 1 8 -2 17 -5z m80 0 c20 -8 21
-21 1 -21 -8 0 -12 4 -9 9 3 4 0 8 -5 8 -6 0 -11 -4 -11 -8 0 -5 -7 -9 -16 -9
-14 0 -14 2 2 14 21 15 18 15 38 7z m-2784 -13 c0 -6 -4 -13 -10 -16 -5 -3
-10 1 -10 9 0 9 5 16 10 16 6 0 10 -4 10 -9z m750 3 c0 -8 -19 -13 -24 -6 -3
5 1 9 9 9 8 0 15 -2 15 -3z m80 0 c0 -8 -19 -13 -24 -6 -3 5 1 9 9 9 8 0 15
-2 15 -3z m-352 -56 c-2 -7 2 -12 8 -11 6 1 11 -5 11 -13 0 -11 -4 -11 -19 3
-10 9 -18 13 -18 9 0 -4 -5 -4 -12 0 -10 6 2 15 30 23 1 1 1 -5 0 -11z m1697
-17 c3 -5 2 -12 -3 -15 -5 -3 -9 1 -9 9 0 17 3 19 12 6z m-120 -31 c-3 -5 -12
-10 -18 -10 -7 0 -6 4 3 10 19 12 23 12 15 0z m-22 -38 c-4 -9 -9 -10 -19 -1
-7 6 -19 7 -25 3 -7 -4 -9 -3 -6 3 10 16 56 11 50 -5z m-1133 -47 c5 3 12 0
16 -6 4 -8 3 -9 -4 -5 -7 4 -12 1 -12 -6 0 -9 -3 -9 -10 2 -5 8 -9 20 -9 25 0
6 3 4 6 -3 2 -6 9 -10 13 -7z m883 -15 c3 -11 1 -18 -4 -14 -5 3 -9 12 -9 20
0 20 7 17 13 -6z"/>
<path d="M2510 3896 c0 -2 7 -7 16 -10 8 -3 12 -2 9 4 -6 10 -25 14 -25 6z"/>
<path d="M3319 3625 c-1 -3 -2 -8 -3 -12 -1 -5 -4 -13 -8 -19 -8 -12 0 -24 15
-24 5 0 7 7 4 15 -4 8 -2 17 3 20 5 3 11 -3 13 -12 4 -14 5 -14 6 3 1 18 -26
44 -30 29z"/>
<path d="M3386 3614 c-8 -21 -8 -24 5 -24 5 0 8 4 5 9 -4 5 -1 11 6 13 8 3 9
6 1 11 -6 4 -14 0 -17 -9z"/>
<path d="M3386 3538 c3 -5 10 -6 15 -3 13 9 11 12 -6 12 -8 0 -12 -4 -9 -9z"/>
<path d="M3520 3490 c-9 -6 -10 -10 -3 -10 6 0 15 5 18 10 8 12 4 12 -15 0z"/>
<path d="M3525 3456 c21 -15 49 -10 39 6 -4 6 -9 6 -14 -2 -5 -9 -9 -9 -14 -1
-4 6 -12 11 -19 11 -6 0 -2 -6 8 -14z"/>
<path d="M3464 3447 c-4 -7 -4 -9 1 -5 4 4 14 3 22 -3 8 -7 13 -8 13 -1 0 15
-28 23 -36 9z"/>
<path d="M3540 3426 c0 -2 8 -10 18 -17 15 -13 16 -12 3 4 -13 16 -21 21 -21
13z"/>
<path d="M3634 3288 c-4 -6 0 -16 9 -23 9 -7 14 -15 10 -18 -3 -4 2 -9 11 -13
10 -4 22 -2 28 4 6 6 18 8 27 5 14 -4 14 -3 1 6 -9 6 -18 7 -24 1 -13 -13 -39
-13 -31 -1 3 6 -3 14 -12 20 -16 9 -16 12 -3 21 9 6 10 10 3 10 -6 0 -15 -5
-19 -12z"/>
<path d="M3675 3289 c-4 -6 -3 -15 3 -21 6 -6 11 -4 15 6 7 18 -9 31 -18 15z"/>
<path d="M3697 3223 c-8 -18 -1 -48 13 -49 8 0 17 -2 20 -3 3 -2 12 -4 21 -6
14 -2 13 2 -5 31 -20 32 -40 43 -49 27z m39 -30 c14 -23 15 -26 1 -15 -9 8
-21 11 -26 8 -5 -4 -9 3 -8 14 2 27 11 25 33 -7z"/>
<path d="M3708 3153 c7 -3 16 -2 19 1 4 3 -2 6 -13 5 -11 0 -14 -3 -6 -6z"/>
<path d="M3694 3119 c0 -10 4 -15 8 -13 4 3 8 0 8 -5 0 -6 8 -11 17 -11 15 0
15 1 -2 13 -10 8 -15 18 -12 24 3 5 1 10 -6 10 -7 0 -13 -8 -13 -18z"/>
<path d="M3727 3056 c20 -26 27 -28 17 -3 -3 8 -12 18 -20 21 -11 4 -10 0 3
-18z"/>
<path d="M3781 3036 c-9 -11 -9 -16 0 -22 7 -4 9 -3 5 4 -3 5 0 12 6 15 7 2
10 7 7 11 -3 4 -12 0 -18 -8z"/>
<path d="M3803 3013 c4 -3 -1 -12 -11 -20 -15 -13 -15 -13 6 -3 19 9 23 30 5
30 -4 0 -3 -3 0 -7z"/>
<path d="M1736 3644 c-9 -9 -15 -19 -12 -21 3 -3 13 2 22 11 9 9 19 14 22 11
4 -3 0 -11 -8 -16 -13 -9 -13 -10 0 -6 18 4 20 29 4 34 -7 2 -19 -4 -28 -13z"/>
<path d="M1720 3604 c0 -1 8 -8 17 -15 9 -8 14 -9 10 -2 -4 6 -1 13 5 16 7 3
3 4 -9 4 -13 -1 -23 -2 -23 -3z"/>
<path d="M1793 3599 c-6 -6 -9 -18 -6 -27 4 -10 2 -13 -5 -8 -8 5 -10 2 -6 -9
8 -21 21 -8 28 28 5 30 5 32 -11 16z"/>
<path d="M1713 3568 c1 -15 6 -23 11 -18 4 4 4 16 -2 26 -9 16 -10 14 -9 -8z"/>
<path d="M1697 3529 c10 -10 10 -16 0 -28 -11 -14 -10 -14 6 -2 9 7 17 17 17
21 0 4 -8 11 -17 15 -14 5 -15 4 -6 -6z"/>
<path d="M1580 3480 c0 -4 -17 -19 -37 -33 -21 -15 -32 -27 -24 -27 8 0 4 -8
-10 -21 -13 -11 -19 -18 -12 -15 6 4 13 0 16 -6 2 -7 8 -9 13 -5 5 4 2 12 -5
16 -10 7 -9 10 8 16 12 4 20 13 19 22 -2 9 10 22 29 32 35 17 42 28 18 28 -8
0 -15 -3 -15 -7z"/>
<path d="M1630 3470 c-12 -7 -10 -9 7 -7 12 0 19 5 17 9 -6 10 -6 10 -24 -2z"/>
<path d="M1603 3435 c-10 -11 -10 -15 0 -18 9 -4 9 -6 0 -6 -7 -1 -13 -6 -13
-13 0 -6 11 -1 25 12 13 12 22 27 19 31 -7 12 -17 11 -31 -6z"/>
<path d="M1383 3205 c0 -8 4 -15 9 -15 5 0 6 -5 2 -12 -4 -7 -3 -8 4 -4 9 5 9
13 2 27 -13 23 -17 24 -17 4z"/>
<path d="M1365 3080 c-4 -6 -2 -17 4 -24 6 -7 8 -16 4 -19 -3 -4 -1 -7 5 -7
15 0 16 17 1 25 -6 4 -8 13 -5 21 6 16 0 19 -9 4z"/>
<path d="M1308 3048 c10 -13 10 -17 0 -21 -7 -2 -10 -7 -7 -11 3 -4 11 0 18 7
9 11 7 17 -6 28 -16 13 -17 12 -5 -3z"/>
<path d="M2436 3438 c3 -4 9 -8 15 -8 5 0 9 4 9 8 0 5 -7 9 -15 9 -8 0 -12 -4
-9 -9z"/>
<path d="M2374 3420 c0 -14 4 -16 17 -10 9 5 18 8 20 7 2 -1 3 0 1 3 -2 3 -7
5 -10 5 -4 0 -12 3 -17 7 -6 4 -11 -2 -11 -12z"/>
<path d="M2260 3315 c-7 -9 -11 -17 -9 -20 3 -2 10 5 17 15 14 24 10 26 -8 5z"/>
<path d="M2840 3318 c-12 -8 -12 -9 2 -5 9 3 19 1 22 -6 3 -9 5 -9 5 0 1 18
-13 23 -29 11z"/>
<path d="M2890 3290 c-6 -11 -8 -20 -6 -20 3 0 10 9 16 20 6 11 8 20 6 20 -3
0 -10 -9 -16 -20z"/>
<path d="M2955 3140 c-3 -5 -1 -10 4 -10 6 0 11 5 11 10 0 6 -2 10 -4 10 -3 0
-8 -4 -11 -10z"/>
<path d="M2115 3110 c-4 -6 -1 -9 7 -8 8 2 12 -4 10 -14 -3 -22 4 -24 11 -4 7
18 -18 42 -28 26z"/>
<path d="M2984 2921 c4 -5 0 -11 -6 -14 -7 -3 -3 -4 9 -4 17 1 19 4 11 14 -12
15 -22 18 -14 4z"/>
<path d="M2977 2883 c-6 -13 -2 -33 7 -35 5 -2 11 7 12 20 4 20 -10 31 -19 15z"/>
<path d="M2126 2861 c-3 -5 1 -14 9 -21 10 -9 15 -9 15 -1 0 6 -6 11 -12 11
-9 0 -8 4 2 10 9 6 10 10 3 10 -6 0 -14 -4 -17 -9z"/>
<path d="M2192 2754 c-11 -12 -10 -15 2 -20 9 -3 14 -10 11 -14 -3 -5 -1 -11
4 -14 10 -7 9 19 -1 30 -4 3 -4 12 -1 20 7 18 2 17 -15 -2z"/>
<path d="M2904 2731 c4 -7 -2 -14 -15 -19 -17 -7 -19 -10 -7 -14 19 -8 43 28
26 38 -7 4 -8 3 -4 -5z"/>
<path d="M2251 2683 c-1 -7 8 -17 19 -23 14 -7 20 -7 20 0 0 5 -6 10 -14 10
-8 0 -17 6 -19 13 -4 9 -6 9 -6 0z"/>
<path d="M2301 2649 c0 -9 10 -24 23 -32 21 -14 25 -15 30 -1 3 8 2 13 -3 9
-14 -8 -39 5 -44 23 -4 15 -5 15 -6 1z"/>
<path d="M2761 2608 c-14 -23 -14 -23 8 -4 22 20 25 26 13 26 -4 0 -13 -10
-21 -22z"/>
<path d="M2376 2593 c22 -16 34 -17 34 -2 0 5 -4 7 -10 4 -5 -3 -10 -2 -10 3
0 5 -7 9 -16 9 -14 0 -14 -2 2 -14z"/>
<path d="M2445 2580 c-3 -6 1 -7 9 -4 18 7 21 14 7 14 -6 0 -13 -4 -16 -10z"/>
<path d="M2548 2573 c7 -3 16 -2 19 1 4 3 -2 6 -13 5 -11 0 -14 -3 -6 -6z"/>
<path d="M2591 2567 c-8 -10 -7 -14 2 -14 8 0 14 6 14 14 0 7 -1 13 -2 13 -2
0 -8 -6 -14 -13z"/>
<path d="M3345 2949 c-4 -6 -5 -12 -2 -15 2 -3 7 2 10 11 7 17 1 20 -8 4z"/>
<path d="M3350 2899 c0 -5 5 -7 10 -4 6 3 10 8 10 11 0 2 -4 4 -10 4 -5 0 -10
-5 -10 -11z"/>
<path d="M3387 2899 c7 -7 15 -10 18 -7 3 3 -2 9 -12 12 -14 6 -15 5 -6 -5z"/>
<path d="M3320 2890 c-9 -6 -10 -10 -3 -10 6 0 15 5 18 10 8 12 4 12 -15 0z"/>
<path d="M3441 2891 c-10 -6 -9 -10 3 -14 8 -3 18 -2 21 3 8 13 -9 20 -24 11z"/>
<path d="M3306 2781 c-4 -5 3 -7 13 -4 16 4 19 1 15 -19 -4 -20 -3 -21 5 -3 4
11 7 23 4 28 -6 10 -31 9 -37 -2z"/>
<path d="M3316 2713 c-6 -14 -5 -15 5 -6 7 7 10 15 7 18 -3 3 -9 -2 -12 -12z"/>
<path d="M3330 2685 c0 -8 4 -15 10 -15 5 0 7 7 4 15 -4 8 -8 15 -10 15 -2 0
-4 -7 -4 -15z"/>
<path d="M3436 2668 c3 -5 10 -6 15 -3 13 9 11 12 -6 12 -8 0 -12 -4 -9 -9z"/>
<path d="M3306 2621 c-4 -5 3 -7 13 -4 16 4 19 1 15 -19 -4 -20 -3 -21 5 -3 4
11 7 23 4 28 -6 10 -31 9 -37 -2z"/>
<path d="M3426 2602 c-3 -5 1 -9 9 -9 8 0 12 4 9 9 -3 4 -7 8 -9 8 -2 0 -6 -4
-9 -8z"/>
<path d="M3316 2553 c-6 -14 -5 -15 5 -6 7 7 10 15 7 18 -3 3 -9 -2 -12 -12z"/>
<path d="M3330 2525 c0 -8 4 -15 10 -15 5 0 7 7 4 15 -4 8 -8 15 -10 15 -2 0
-4 -7 -4 -15z"/>
<path d="M3306 2461 c-4 -5 3 -7 13 -4 16 4 19 1 15 -19 -4 -20 -3 -21 5 -3 4
11 7 23 4 28 -6 10 -31 9 -37 -2z"/>
<path d="M3316 2393 c-6 -14 -5 -15 5 -6 7 7 10 15 7 18 -3 3 -9 -2 -12 -12z"/>
<path d="M3330 2365 c0 -8 4 -15 10 -15 5 0 7 7 4 15 -4 8 -8 15 -10 15 -2 0
-4 -7 -4 -15z"/>
<path d="M3436 2348 c3 -5 10 -6 15 -3 13 9 11 12 -6 12 -8 0 -12 -4 -9 -9z"/>
<path d="M3410 2260 c0 -5 5 -10 11 -10 5 0 7 5 4 10 -3 6 -8 10 -11 10 -2 0
-4 -4 -4 -10z"/>
<path d="M3318 2196 c-10 -14 -13 -28 -8 -36 5 -8 5 -19 -1 -26 -6 -8 -6 -14
0 -18 5 -3 7 -15 4 -26 -3 -11 -1 -20 5 -20 16 0 20 23 8 44 -8 14 -8 20 1 23
10 4 9 8 -2 20 -13 13 -13 16 0 29 8 9 15 20 15 25 0 13 -3 11 -22 -15z"/>
<path d="M3353 2165 c0 -8 4 -12 9 -9 5 3 6 10 3 15 -9 13 -12 11 -12 -6z"/>
<path d="M3374 2142 c4 -7 2 -12 -4 -12 -6 0 -8 -4 -5 -10 3 -5 1 -10 -4 -10
-6 0 -11 5 -11 10 0 6 -5 10 -10 10 -6 0 -5 -8 2 -19 13 -22 23 -19 38 9 7 13
7 21 -2 26 -7 4 -8 3 -4 -4z"/>
<path d="M1746 2924 c-6 -15 -4 -15 11 -3 10 7 20 15 22 16 2 2 -3 3 -11 3 -9
0 -19 -7 -22 -16z"/>
<path d="M1800 2879 c0 -5 -4 -8 -9 -4 -5 3 -12 1 -15 -4 -4 -5 2 -8 11 -7 15
3 33 26 19 26 -3 0 -6 -5 -6 -11z"/>
<path d="M1790 2819 c0 -5 5 -7 10 -4 6 3 10 8 10 11 0 2 -4 4 -10 4 -5 0 -10
-5 -10 -11z"/>
<path d="M1775 2751 c-3 -5 0 -13 6 -17 7 -4 9 -3 5 4 -3 6 2 13 11 15 16 4
16 5 1 6 -9 0 -19 -3 -23 -8z"/>
<path d="M1650 2735 c-6 -8 -9 -19 -5 -25 11 -18 23 -11 23 15 0 29 -2 30 -18
10z"/>
<path d="M1663 2613 c0 -9 4 -10 14 -2 7 6 13 12 13 14 0 1 -6 2 -13 2 -8 0
-14 -6 -14 -14z"/>
<path d="M1777 2543 c-9 -8 12 -33 27 -33 6 0 2 6 -9 12 -19 11 -19 11 0 19
15 6 16 8 4 8 -9 1 -19 -2 -22 -6z"/>
<path d="M1676 2398 c3 -5 10 -6 15 -3 13 9 11 12 -6 12 -8 0 -12 -4 -9 -9z"/>
<path d="M1800 2394 c0 -8 5 -12 10 -9 6 4 8 11 5 16 -9 14 -15 11 -15 -7z"/>
<path d="M1663 2375 c0 -8 4 -12 9 -9 5 3 6 10 3 15 -9 13 -12 11 -12 -6z"/>
<path d="M1790 2339 c0 -5 5 -7 10 -4 6 3 10 8 10 11 0 2 -4 4 -10 4 -5 0 -10
-5 -10 -11z"/>
<path d="M1788 2273 c7 -3 16 -2 19 1 4 3 -2 6 -13 5 -11 0 -14 -3 -6 -6z"/>
<path d="M1661 2246 c-10 -12 -8 -16 10 -21 12 -4 17 -10 12 -14 -16 -10 -12
-40 5 -34 10 4 11 8 2 13 -9 6 -7 10 5 18 17 9 17 10 -4 17 -14 4 -20 12 -17
21 7 18 2 18 -13 0z"/>
<path d="M1780 2211 c-8 -6 -19 -7 -25 -4 -5 4 -6 2 -2 -2 11 -13 37 -15 37
-4 0 6 5 7 12 3 7 -4 8 -3 4 4 -9 14 -7 14 -26 3z"/>
<path d="M1730 2156 c7 -7 13 -7 20 0 6 6 3 10 -10 10 -13 0 -16 -4 -10 -10z"/>
<path d="M1756 2122 c-2 -4 4 -9 15 -9 11 -1 17 2 14 8 -7 11 -22 12 -29 1z"/>
<path d="M2552 1801 c1 -18 4 -34 8 -36 8 -5 3 55 -4 63 -3 2 -4 -10 -4 -27z"/>
<path d="M2627 1801 c3 -11 10 -19 17 -18 6 1 10 -4 9 -10 -2 -7 0 -12 5 -12
20 3 25 -2 12 -12 -12 -9 -12 -10 -1 -7 25 7 21 22 -14 51 -29 24 -33 25 -28
8z"/>
<path d="M2710 1670 c0 -5 5 -10 11 -10 5 0 7 5 4 10 -3 6 -8 10 -11 10 -2 0
-4 -4 -4 -10z"/>
<path d="M2387 1659 c7 -7 15 -10 18 -7 3 3 -2 9 -12 12 -14 6 -15 5 -6 -5z"/>
<path d="M2420 1655 c0 -5 5 -17 10 -25 5 -8 10 -10 10 -5 0 6 -5 17 -10 25
-5 8 -10 11 -10 5z"/>
<path d="M2456 1633 c-6 -14 -5 -15 5 -6 7 7 10 15 7 18 -3 3 -9 -2 -12 -12z"/>
<path d="M2523 1635 c0 -8 4 -12 9 -9 5 3 6 10 3 15 -9 13 -12 11 -12 -6z"/>
<path d="M2606 1633 c-6 -14 -5 -15 5 -6 7 7 10 15 7 18 -3 3 -9 -2 -12 -12z"/>
<path d="M2385 1630 c-8 -13 4 -32 16 -25 12 8 12 35 0 35 -6 0 -13 -4 -16
-10z"/>
<path d="M1716 1490 c5 -8 9 -18 9 -22 0 -5 4 -8 8 -9 18 -2 16 9 -5 27 -13
11 -18 13 -12 4z"/>
<path d="M1774 1492 c3 -5 0 -13 -6 -15 -9 -4 -10 -6 -1 -6 17 -1 25 16 12 25
-7 4 -9 3 -5 -4z"/>
<path d="M1772 1455 c-17 -9 -19 -14 -9 -18 7 -3 19 4 25 14 7 10 11 19 10 18
-2 -1 -13 -7 -26 -14z"/>
<path d="M3430 1601 c0 -6 4 -12 8 -15 5 -3 9 1 9 9 0 8 -4 15 -9 15 -4 0 -8
-4 -8 -9z"/>
<path d="M3390 1540 c0 -5 5 -10 11 -10 5 0 7 5 4 10 -3 6 -8 10 -11 10 -2 0
-4 -4 -4 -10z"/>
<path d="M3446 1527 c3 -10 9 -15 12 -12 3 3 0 11 -7 18 -10 9 -11 8 -5 -6z"/>
<path d="M3305 1490 c-9 -14 24 -25 37 -12 8 8 4 9 -13 6 -19 -5 -21 -4 -9 5
9 7 10 11 3 11 -6 0 -15 -5 -18 -10z"/>
<path d="M3433 1493 c9 -2 14 -9 11 -15 -4 -7 -2 -8 5 -4 15 10 4 26 -17 25
-15 -1 -15 -2 1 -6z"/>
<path d="M3347 1455 c-4 -8 -3 -16 1 -19 4 -3 9 4 9 15 2 23 -3 25 -10 4z"/>
<path d="M2476 1215 c3 -11 7 -25 7 -30 0 -6 8 -11 18 -11 10 0 17 3 17 6 -2
20 4 21 17 4 8 -10 15 -14 15 -8 0 18 -27 37 -35 24 -10 -16 -21 -12 -34 13
-9 17 -10 17 -5 2z"/>
<path d="M1660 986 c0 -2 8 -10 18 -17 15 -13 16 -12 3 4 -13 16 -21 21 -21
13z"/>
<path d="M3439 998 c-1 -2 -2 -15 -3 -29 -1 -15 -7 -33 -14 -42 -10 -11 -9
-17 3 -27 9 -7 14 -19 11 -26 -6 -15 3 -26 15 -18 5 3 5 14 -1 24 -6 11 -6 21
-1 24 10 7 9 25 -1 42 -4 6 -6 21 -3 33 3 17 -1 29 -6 19z m6 -75 c-2 -10 -4
-19 -4 -21 -1 -2 -6 0 -11 3 -8 5 -7 11 1 21 15 18 18 18 14 -3z"/>
<path d="M3065 4660 c-3 -5 -5 -10 -3 -11 27 -6 39 -5 45 4 3 7 3 9 -2 5 -4
-4 -14 -3 -21 3 -8 7 -14 7 -19 -1z"/>
<path d="M2175 4650 c3 -5 8 -10 11 -10 2 0 4 5 4 10 0 6 -5 10 -11 10 -5 0
-7 -4 -4 -10z"/>
<path d="M2201 4634 c0 -11 3 -14 6 -6 3 7 2 16 -1 19 -3 4 -6 -2 -5 -13z"/>
<path d="M3160 4641 c0 -6 4 -13 10 -16 6 -3 7 1 4 9 -7 18 -14 21 -14 7z"/>
<path d="M3194 4636 c1 -8 5 -18 8 -22 4 -3 5 1 4 10 -1 8 -5 18 -8 22 -4 3
-5 -1 -4 -10z"/>
<path d="M1900 4636 c0 -2 7 -6 15 -10 8 -3 15 -1 15 4 0 6 -7 10 -15 10 -8 0
-15 -2 -15 -4z"/>
<path d="M1865 4609 c-4 -6 -5 -12 -2 -15 2 -3 7 2 10 11 7 17 1 20 -8 4z"/>
<path d="M1820 4600 c-12 -7 -10 -9 7 -7 12 0 19 5 17 9 -6 10 -6 10 -24 -2z"/>
<path d="M2240 4560 c-13 -8 -12 -10 3 -10 9 0 17 5 17 10 0 12 -1 12 -20 0z"/>
<path d="M2255 4530 c3 -5 8 -10 11 -10 2 0 4 5 4 10 0 6 -5 10 -11 10 -5 0
-7 -4 -4 -10z"/>
<path d="M2846 4518 c3 -5 10 -6 15 -3 13 9 11 12 -6 12 -8 0 -12 -4 -9 -9z"/>
<path d="M2835 4489 c-4 -6 -5 -12 -2 -15 2 -3 7 2 10 11 7 17 1 20 -8 4z"/>
<path d="M2274 4473 c11 -13 24 -23 30 -23 6 0 5 4 -3 9 -7 5 -9 11 -5 13 5 3
4 4 -2 2 -6 -1 -18 3 -25 9 -7 7 -5 2 5 -10z"/>
<path d="M1660 4470 c-9 -6 -10 -10 -3 -10 6 0 15 5 18 10 8 12 4 12 -15 0z"/>
<path d="M1655 4441 c-3 -6 3 -9 14 -8 11 0 17 5 15 9 -7 11 -22 10 -29 -1z"/>
<path d="M2820 4419 c0 -5 -4 -8 -9 -5 -5 3 -15 -2 -22 -12 -13 -15 -12 -16 4
-3 16 13 25 2 10 -13 -11 -11 -12 -37 -1 -30 5 3 7 8 4 11 -3 3 4 19 15 34 11
16 16 29 10 29 -6 0 -11 -5 -11 -11z"/>
<path d="M1655 4380 c-8 -13 5 -13 25 0 13 8 13 10 -2 10 -9 0 -20 -4 -23 -10z"/>
<path d="M1670 4360 c-12 -8 -11 -10 5 -10 17 0 17 -2 5 -10 -9 -6 -10 -10 -3
-10 16 0 23 13 15 27 -5 8 -13 9 -22 3z"/>
<path d="M2469 4323 c-13 -16 -12 -17 4 -4 9 7 17 15 17 17 0 8 -8 3 -21 -13z"/>
<path d="M2441 4314 c0 -11 3 -14 6 -6 3 7 2 16 -1 19 -3 4 -6 -2 -5 -13z"/>
<path d="M3425 4261 c-6 -11 13 -26 22 -17 4 3 0 6 -8 7 -8 0 -6 4 6 9 16 7
17 9 3 9 -9 1 -19 -3 -23 -8z"/>
<path d="M3432 4218 c-7 -7 -12 -16 -12 -20 0 -11 28 -10 35 2 4 6 -1 7 -12 3
-16 -6 -16 -5 -4 10 15 20 11 23 -7 5z"/>
<path d="M3436 4167 c3 -10 9 -15 12 -12 3 3 0 11 -7 18 -10 9 -11 8 -5 -6z"/>
<path d="M1706 4144 c-23 -23 -20 -30 4 -9 11 10 20 20 20 22 0 7 -9 2 -24
-13z"/>
<path d="M3430 4119 c0 -5 5 -7 10 -4 6 3 10 8 10 11 0 2 -4 4 -10 4 -5 0 -10
-5 -10 -11z"/>
<path d="M1695 4106 c-17 -12 -17 -13 3 -11 26 2 37 11 24 19 -5 3 -17 -1 -27
-8z"/>
<path d="M1660 4083 c0 -15 18 -35 23 -27 3 5 -1 15 -9 22 -8 7 -14 9 -14 5z"/>
<path d="M3467 4079 c7 -7 15 -10 18 -7 3 3 -2 9 -12 12 -14 6 -15 5 -6 -5z"/>
<path d="M1001 4034 c0 -11 3 -14 6 -6 3 7 2 16 -1 19 -3 4 -6 -2 -5 -13z"/>
<path d="M1627 4039 c7 -7 15 -10 18 -7 3 3 -2 9 -12 12 -14 6 -15 5 -6 -5z"/>
<path d="M3491 4034 c0 -11 3 -14 6 -6 3 7 2 16 -1 19 -3 4 -6 -2 -5 -13z"/>
<path d="M4039 4028 c-5 -18 -6 -38 -1 -34 7 8 12 36 6 36 -2 0 -4 -1 -5 -2z"/>
<path d="M3540 4001 c0 -7 -5 -9 -12 -5 -7 5 -8 3 -3 -5 5 -9 10 -10 18 -2 6
6 8 14 4 18 -4 3 -7 1 -7 -6z"/>
<path d="M1177 3983 c-4 -3 -7 -11 -7 -17 0 -6 5 -5 12 2 6 6 9 14 7 17 -3 3
-9 2 -12 -2z"/>
<path d="M4175 3981 c-3 -6 -12 -8 -18 -4 -6 4 9 -17 33 -46 53 -63 76 -78 76
-51 0 13 -4 16 -11 10 -11 -9 -45 20 -45 38 0 4 -10 13 -21 21 -17 10 -19 15
-8 21 7 5 11 12 7 15 -3 4 -9 1 -13 -4z"/>
<path d="M893 3923 c4 -3 2 -12 -4 -19 -7 -8 -7 -14 1 -19 5 -3 10 -5 11 -3 8
32 7 48 -3 48 -6 0 -8 -3 -5 -7z"/>
<path d="M1265 3920 c-3 -6 1 -7 9 -4 18 7 21 14 7 14 -6 0 -13 -4 -16 -10z"/>
<path d="M1316 3917 c3 -10 9 -15 12 -12 3 3 0 11 -7 18 -10 9 -11 8 -5 -6z"/>
<path d="M3800 3901 c0 -7 -4 -10 -8 -7 -5 3 -9 -2 -9 -10 0 -13 2 -13 16 0 8
9 12 19 8 22 -4 4 -7 2 -7 -5z"/>
<path d="M1340 3894 c0 -2 9 -8 20 -14 15 -8 18 -8 14 3 -4 11 -34 21 -34 11z"/>
<path d="M820 3846 c0 -2 8 -10 18 -17 15 -13 16 -12 3 4 -13 16 -21 21 -21
13z"/>
<path d="M4265 3840 c-3 -6 1 -7 9 -4 18 7 21 14 7 14 -6 0 -13 -4 -16 -10z"/>
<path d="M797 3819 c7 -7 15 -10 18 -7 3 3 -2 9 -12 12 -14 6 -15 5 -6 -5z"/>
<path d="M4300 3826 c0 -2 8 -10 18 -17 15 -13 16 -12 3 4 -13 16 -21 21 -21
13z"/>
<path d="M740 3711 c0 -6 4 -13 10 -16 6 -3 7 1 4 9 -7 18 -14 21 -14 7z"/>
<path d="M718 3670 c-17 -16 -17 -17 0 -15 18 1 26 10 20 24 -2 4 -11 1 -20
-9z"/>
<path d="M4391 3657 c-8 -10 -7 -14 2 -14 8 0 14 6 14 14 0 7 -1 13 -2 13 -2
0 -8 -6 -14 -13z"/>
<path d="M4410 3620 c0 -5 5 -10 11 -10 5 0 7 5 4 10 -3 6 -8 10 -11 10 -2 0
-4 -4 -4 -10z"/>
<path d="M4256 3394 c-8 -20 -8 -24 2 -24 4 0 8 9 9 20 2 24 -3 26 -11 4z"/>
<path d="M879 3383 c-13 -16 -12 -17 4 -4 9 7 17 15 17 17 0 8 -8 3 -21 -13z"/>
<path d="M930 3340 c0 -6 -4 -9 -8 -6 -5 3 -9 -1 -9 -9 0 -19 5 -19 23 -1 9 9
10 17 4 21 -5 3 -10 1 -10 -5z"/>
<path d="M4186 3133 c-4 -9 0 -23 9 -32 9 -9 15 -11 15 -4 0 6 -6 14 -12 16
-10 4 -10 8 1 15 8 6 9 12 3 16 -5 3 -13 -2 -16 -11z"/>
<path d="M911 3108 c-13 -20 -12 -22 1 -11 8 7 18 10 22 6 4 -4 4 0 0 10 -8
21 -6 21 -23 -5z"/>
<path d="M915 3060 c3 -5 8 -10 11 -10 2 0 4 5 4 10 0 6 -5 10 -11 10 -5 0 -7
-4 -4 -10z"/>
<path d="M910 3001 c0 -5 7 -11 15 -15 8 -3 15 -1 15 3 0 5 -7 11 -15 15 -8 3
-15 1 -15 -3z"/>
<path d="M891 2963 c4 -22 -2 -34 -13 -27 -9 5 -9 2 1 -9 7 -9 16 -17 19 -17
3 0 2 3 -1 6 -3 4 -2 15 3 25 7 12 7 20 0 24 -6 4 -10 3 -9 -2z"/>
<path d="M610 2875 c0 -8 2 -15 4 -15 2 0 6 7 10 15 3 8 1 15 -4 15 -6 0 -10
-7 -10 -15z"/>
<path d="M4370 2880 c0 -4 7 -7 15 -6 23 3 26 12 5 13 -11 1 -20 -2 -20 -7z"/>
<path d="M4586 2842 c-3 -5 1 -9 9 -9 8 0 12 4 9 9 -3 4 -7 8 -9 8 -2 0 -6 -4
-9 -8z"/>
<path d="M4670 2791 c0 -6 4 -13 10 -16 6 -3 7 1 4 9 -7 18 -14 21 -14 7z"/>
<path d="M440 2775 c-7 -8 -17 -12 -24 -8 -6 3 -7 2 -3 -2 4 -5 15 -10 23 -11
9 -1 13 0 10 3 -3 4 -1 12 5 20 6 7 9 13 6 13 -2 0 -10 -7 -17 -15z"/>
<path d="M434 2732 c3 -6 -2 -15 -11 -21 -10 -6 -13 -11 -7 -11 20 0 37 27 23
36 -7 4 -9 3 -5 -4z"/>
<path d="M4675 2721 c-3 -5 0 -13 6 -17 8 -5 9 -3 4 6 -6 10 -4 12 9 7 10 -4
15 -3 11 3 -8 13 -22 13 -30 1z"/>
<path d="M422 2678 c2 -6 10 -13 16 -14 7 -1 8 0 2 3 -5 2 -8 9 -4 14 3 5 0 9
-6 9 -7 0 -10 -5 -8 -12z"/>
<path d="M4683 2595 c0 -7 6 -11 14 -8 7 3 13 6 13 8 0 2 -6 5 -13 8 -8 3 -14
-1 -14 -8z"/>
<path d="M4691 2562 c-7 -13 -6 -19 2 -19 7 0 13 9 13 19 0 10 -1 18 -3 18 -1
0 -7 -8 -12 -18z"/>
<path d="M4713 2495 c0 -8 4 -12 9 -9 5 3 6 10 3 15 -9 13 -12 11 -12 -6z"/>
<path d="M418 2492 c7 -5 10 -17 7 -28 -6 -17 -6 -18 5 -1 12 19 6 37 -13 37
-9 0 -8 -3 1 -8z"/>
<path d="M4676 2382 c-3 -5 1 -15 8 -21 11 -10 14 -9 12 3 -3 21 -13 29 -20
18z"/>
<path d="M430 2359 c0 -5 5 -7 10 -4 6 3 10 8 10 11 0 2 -4 4 -10 4 -5 0 -10
-5 -10 -11z"/>
<path d="M439 2322 c6 -11 8 -22 3 -25 -4 -2 -2 -3 4 -1 6 1 18 -3 25 -9 11
-10 11 -9 1 4 -6 9 -9 18 -6 22 3 3 -4 11 -16 17 -20 11 -21 10 -11 -8z"/>
<path d="M480 2246 c0 -2 8 -10 18 -17 15 -13 16 -12 3 4 -13 16 -21 21 -21
13z"/>
<path d="M4513 2224 c0 -14 2 -21 6 -17 3 4 9 10 12 13 4 3 1 10 -6 17 -10 9
-12 6 -12 -13z"/>
<path d="M4630 2241 c0 -6 4 -13 10 -16 6 -3 7 1 4 9 -7 18 -14 21 -14 7z"/>
<path d="M835 2230 c-3 -5 -1 -10 4 -10 6 0 11 5 11 10 0 6 -2 10 -4 10 -3 0
-8 -4 -11 -10z"/>
<path d="M4296 2195 c-3 -8 -1 -15 4 -15 6 0 10 7 10 15 0 8 -2 15 -4 15 -2 0
-6 -7 -10 -15z"/>
<path d="M4348 2193 c6 -2 10 -9 7 -14 -4 -5 1 -6 10 -2 13 5 14 7 3 14 -7 5
-17 8 -23 8 -5 0 -4 -3 3 -6z"/>
<path d="M4271 2173 c-1 -17 16 -25 25 -12 4 7 3 9 -4 5 -5 -3 -13 0 -15 6 -4
9 -6 10 -6 1z"/>
<path d="M873 2125 c0 -8 4 -15 9 -15 4 0 8 4 8 9 0 6 -4 12 -8 15 -5 3 -9 -1
-9 -9z"/>
<path d="M885 2072 c1 -15 -3 -31 -9 -35 -7 -6 -6 -7 4 -5 14 4 23 55 10 63
-4 2 -6 -8 -5 -23z"/>
<path d="M4226 2092 c-3 -5 1 -9 9 -9 8 0 12 4 9 9 -3 4 -7 8 -9 8 -2 0 -6 -4
-9 -8z"/>
<path d="M4225 2061 c-6 -11 13 -26 22 -17 4 3 0 6 -8 6 -11 0 -11 2 1 10 9 6
10 10 3 10 -6 0 -14 -4 -18 -9z"/>
<path d="M4225 1821 c-6 -11 13 -26 22 -17 4 3 0 6 -8 6 -11 0 -11 2 1 10 9 6
10 10 3 10 -6 0 -14 -4 -18 -9z"/>
<path d="M855 1700 c-3 -5 -1 -10 4 -10 6 0 11 5 11 10 0 6 -2 10 -4 10 -3 0
-8 -4 -11 -10z"/>
<path d="M875 1679 c-4 -6 -5 -13 -2 -16 7 -7 27 6 27 18 0 12 -17 12 -25 -2z"/>
<path d="M4250 1678 c0 -4 4 -8 9 -8 6 0 12 4 15 8 3 5 -1 9 -9 9 -8 0 -15 -4
-15 -9z"/>
<path d="M4410 1536 c0 -2 8 -10 18 -17 15 -13 16 -12 3 4 -13 16 -21 21 -21
13z"/>
<path d="M701 1491 c-7 -5 -9 -11 -5 -14 5 -3 15 1 22 9 14 16 5 18 -17 5z"/>
<path d="M711 1444 c0 -11 3 -14 6 -6 3 7 2 16 -1 19 -3 4 -6 -2 -5 -13z"/>
<path d="M4300 1321 c-7 -14 -7 -22 2 -27 7 -4 8 -3 4 4 -4 7 -2 12 4 12 6 0
9 4 5 9 -3 5 3 12 12 14 16 4 17 5 1 6 -10 0 -22 -8 -28 -18z"/>
<path d="M798 1303 c7 -3 16 -2 19 1 4 3 -2 6 -13 5 -11 0 -14 -3 -6 -6z"/>
<path d="M4326 1302 c-3 -5 1 -9 9 -9 8 0 12 4 9 9 -3 4 -7 8 -9 8 -2 0 -6 -4
-9 -8z"/>
<path d="M4270 1296 c0 -2 8 -10 18 -17 15 -13 16 -12 3 4 -13 16 -21 21 -21
13z"/>
<path d="M854 1218 c-4 -6 -3 -8 4 -4 5 3 12 1 14 -6 3 -8 6 -9 11 -1 4 6 0
13 -8 17 -8 3 -17 0 -21 -6z"/>
<path d="M855 1131 c-3 -5 -2 -12 3 -15 5 -3 9 1 9 9 0 17 -3 19 -12 6z"/>
<path d="M883 1089 c-2 -23 3 -25 10 -4 4 8 3 16 -1 19 -4 3 -9 -4 -9 -15z"/>
<path d="M855 1091 c-3 -5 -2 -12 3 -15 5 -3 9 1 9 9 0 17 -3 19 -12 6z"/>
<path d="M875 1043 c-15 -12 -16 -14 -3 -10 9 3 19 1 21 -6 3 -7 4 -2 4 11 -1
12 -1 22 -2 22 0 0 -9 -8 -20 -17z"/>
<path d="M870 994 c6 -6 6 -15 2 -20 -4 -4 1 -2 11 5 23 18 22 30 -2 28 -14
-1 -17 -5 -11 -13z"/>
<path d="M4246 958 c3 -4 9 -8 15 -8 5 0 9 4 9 8 0 5 -7 9 -15 9 -8 0 -12 -4
-9 -9z"/>
<path d="M874 853 c0 -20 15 -34 17 -15 0 4 2 14 4 23 1 9 -3 16 -9 16 -7 0
-12 -11 -12 -24z"/>
<path d="M4221 866 c-9 -10 -8 -15 3 -19 11 -4 13 -1 9 11 -6 15 -5 16 13 2
18 -14 18 -14 5 3 -16 21 -16 20 -30 3z"/>
<path d="M2670 796 c7 -7 13 -7 20 0 6 6 3 10 -10 10 -13 0 -16 -4 -10 -10z"/>
<path d="M2470 780 c0 -5 5 -10 10 -10 6 0 10 5 10 10 0 6 -4 10 -10 10 -5 0
-10 -4 -10 -10z"/>
<path d="M2670 769 c0 -5 5 -7 10 -4 6 3 10 8 10 11 0 2 -4 4 -10 4 -5 0 -10
-5 -10 -11z"/>
<path d="M2384 746 c1 -9 7 -21 13 -27 9 -9 11 -7 9 5 -1 9 -7 21 -13 27 -9 9
-11 7 -9 -5z"/>
<path d="M847 719 c7 -7 15 -10 18 -7 3 3 -2 9 -12 12 -14 6 -15 5 -6 -5z"/>
<path d="M4213 675 c0 -8 4 -12 9 -9 5 3 6 10 3 15 -9 13 -12 11 -12 -6z"/>
<path d="M2345 660 c-10 -11 -22 -17 -26 -14 -5 3 -9 1 -9 -4 0 -6 7 -12 15
-16 8 -3 14 -1 12 4 -1 5 7 15 18 23 11 9 17 18 14 21 -3 3 -14 -3 -24 -14z"/>
<path d="M870 666 c0 -2 7 -7 16 -10 8 -3 12 -2 9 4 -6 10 -25 14 -25 6z"/>
<path d="M2735 651 c-3 -5 -2 -12 3 -15 5 -3 9 1 9 9 0 17 -3 19 -12 6z"/>
<path d="M3542 630 c7 -11 16 -20 20 -20 15 0 8 15 -12 28 -19 12 -20 11 -8
-8z"/>
<path d="M3655 629 c-4 -6 -5 -12 -2 -15 2 -3 7 2 10 11 7 17 1 20 -8 4z"/>
<path d="M3775 629 c-4 -6 -5 -12 -2 -15 2 -3 7 2 10 11 7 17 1 20 -8 4z"/>
<path d="M916 621 c-3 -5 2 -15 12 -22 15 -12 16 -12 5 2 -7 9 -10 19 -6 22 3
4 4 7 0 7 -3 0 -8 -4 -11 -9z"/>
<path d="M1609 603 c-13 -16 -12 -17 4 -4 16 13 21 21 13 21 -2 0 -10 -8 -17
-17z"/>
<path d="M2313 605 c0 -8 4 -12 9 -9 5 3 6 10 3 15 -9 13 -12 11 -12 -6z"/>
<path d="M3710 610 c-9 -6 -10 -10 -3 -10 6 0 15 5 18 10 8 12 4 12 -15 0z"/>
<path d="M1267 599 c7 -7 15 -10 18 -7 3 3 -2 9 -12 12 -14 6 -15 5 -6 -5z"/>
<path d="M2240 600 c-8 -5 -16 -14 -16 -20 -1 -5 -2 -11 -4 -12 -7 -10 -7 -39
1 -44 5 -3 8 0 7 8 -2 7 3 12 10 10 8 -1 11 2 7 8 -3 5 -1 10 6 10 7 0 4 7 -7
16 -19 15 -19 15 2 11 13 -3 21 1 21 9 0 16 -6 17 -27 4z"/>
<path d="M3427 596 c-6 -14 1 -26 14 -26 4 0 7 9 6 20 -1 23 -12 26 -20 6z"/>
<path d="M3510 601 c0 -6 4 -13 10 -16 6 -3 7 1 4 9 -7 18 -14 21 -14 7z"/>
<path d="M3955 601 c-3 -5 -2 -12 3 -15 5 -3 9 1 9 9 0 17 -3 19 -12 6z"/>
<path d="M1742 530 c-7 -13 -8 -21 -2 -25 6 -4 9 -1 8 6 -5 19 20 22 25 2 4
-16 5 -16 6 -1 1 12 6 15 19 11 9 -3 14 -3 10 1 -3 4 -12 8 -20 10 -7 1 -18 5
-23 8 -6 4 -16 -2 -23 -12z"/>
<path d="M3406 522 c-3 -5 1 -9 9 -9 8 0 12 4 9 9 -3 4 -7 8 -9 8 -2 0 -6 -4
-9 -8z"/>
<path d="M2230 510 c-9 -6 -10 -10 -3 -10 6 0 15 5 18 10 8 12 4 12 -15 0z"/>
<path d="M2880 505 c7 -8 16 -13 20 -10 15 9 17 -20 2 -31 -12 -9 -12 -13 -2
-19 8 -5 11 -4 6 3 -10 16 17 20 33 5 7 -8 15 -12 18 -10 6 7 -48 62 -58 60
-5 -2 -9 2 -9 7 0 6 -5 10 -11 10 -8 0 -8 -5 1 -15z"/>
<path d="M3291 491 c-8 -5 -9 -11 -3 -15 5 -3 12 1 16 9 6 17 6 18 -13 6z"/>
<path d="M1964 457 c3 -17 25 -54 26 -41 0 5 -6 16 -12 23 -11 11 -10 13 4 8
10 -3 20 -1 24 6 4 7 4 9 -1 5 -4 -4 -16 -3 -25 2 -13 7 -18 6 -16 -3z"/>
<path d="M3210 456 c0 -2 8 -10 18 -17 15 -13 16 -12 3 4 -13 16 -21 21 -21
13z"/>
<path d="M2980 411 c0 -7 -5 -9 -12 -5 -7 5 -8 3 -3 -5 5 -9 10 -10 18 -2 6 6
8 14 4 18 -4 3 -7 1 -7 -6z"/>
</g>
</svg>
